ZiroliWes-Regular-Medium3.ufo
<glyph name="exclam" format="1">
  <advance width="267"/>
  <unicode hex="0021"/>
  <outline>
    <contour>
      <point x="116" y="188" type="line"/>
      <point x="134" y="207"/>
      <point x="159" y="221"/>
      <point x="177" y="227" type="curve"/>
      <point x="179" y="234" type="line"/>
      <point x="174" y="249"/>
      <point x="175" y="267"/>
      <point x="175" y="298" type="curve" smooth="yes"/>
      <point x="175.0" y="476.0"/>
      <point x="202.089962962" y="676.152937036"/>
      <point x="212" y="693" type="curve"/>
      <point x="201" y="697" type="line"/>
      <point x="185.735350721" y="679.191242508"/>
      <point x="76.9104827509" y="641.007104544"/>
      <point x="14" y="646" type="curve"/>
      <point x="14" y="631" type="line"/>
      <point x="46" y="636"/>
      <point x="72" y="631"/>
      <point x="89" y="603" type="curve" smooth="yes"/>
      <point x="107.272044982" y="572.546591697"/>
      <point x="119.941670118" y="501.30045558"/>
      <point x="119" y="377" type="curve" smooth="yes"/>
      <point x="119.0" y="335.418079096"/>
      <point x="117.0" y="202.0"/>
      <point x="109" y="193" type="curve"/>
    </contour>
    <contour>
      <point x="149" y="108" type="curve" smooth="yes"/>
      <point x="187" y="108"/>
      <point x="219" y="76"/>
      <point x="219" y="37" type="curve" smooth="yes"/>
      <point x="219" y="0"/>
      <point x="187" y="-32"/>
      <point x="149" y="-32" type="curve" smooth="yes"/>
      <point x="111" y="-32"/>
      <point x="79" y="0"/>
      <point x="79" y="37" type="curve" smooth="yes"/>
      <point x="79" y="76"/>
      <point x="111" y="108"/>
    </contour>
  </outline>
</glyph>
<glyph name="parenleft" format="1">
  <advance width="373"/>
  <unicode hex="0028"/>
  <outline>
    <contour>
      <point x="327" y="782" type="curve"/>
      <point x="336" y="766" type="line"/>
      <point x="194.767412592" y="686.256430239"/>
      <point x="154" y="533"/>
      <point x="154" y="367" type="curve" smooth="yes"/>
      <point x="154" y="201"/>
      <point x="195" y="16"/>
      <point x="336" y="-95" type="curve"/>
      <point x="323" y="-106" type="line"/>
      <point x="217" y="-26"/>
      <point x="59" y="126"/>
      <point x="59" y="349" type="curve" smooth="yes"/>
      <point x="59" y="562"/>
      <point x="196" y="697"/>
    </contour>
  </outline>
</glyph>
<glyph name="plus" format="1">
  <advance width="559"/>
  <unicode hex="002B"/>
  <outline>
    <contour>
      <point x="97" y="412" type="line"/>
      <point x="99" y="364"/>
      <point x="91" y="307"/>
      <point x="59" y="242" type="curve"/>
      <point x="72" y="241" type="line"/>
      <point x="92" y="288"/>
      <point x="131" y="296"/>
      <point x="283" y="296" type="curve" smooth="yes"/>
      <point x="344" y="296" type="line" smooth="yes"/>
      <point x="481" y="296"/>
      <point x="490" y="279"/>
      <point x="490" y="238" type="curve"/>
      <point x="501" y="238" type="line"/>
      <point x="497" y="289"/>
      <point x="500" y="359"/>
      <point x="519" y="412" type="curve"/>
      <point x="509" y="412" type="line"/>
      <point x="489" y="358"/>
      <point x="454" y="355"/>
      <point x="300" y="355" type="curve" smooth="yes"/>
      <point x="247" y="355" type="line" smooth="yes"/>
      <point x="118" y="355"/>
      <point x="107" y="362"/>
      <point x="107" y="412" type="curve"/>
    </contour>
    <contour>
      <point x="400" y="95" type="curve"/>
      <point x="400" y="106" type="line"/>
      <point x="339" y="110"/>
      <point x="332" y="125"/>
      <point x="332" y="274" type="curve" smooth="yes"/>
      <point x="332" y="378" type="line" smooth="yes"/>
      <point x="332" y="529"/>
      <point x="337" y="543"/>
      <point x="393" y="550" type="curve"/>
      <point x="393" y="560" type="line"/>
      <point x="366" y="556"/>
      <point x="319" y="554"/>
      <point x="298" y="554" type="curve" smooth="yes"/>
      <point x="277" y="554"/>
      <point x="232" y="556"/>
      <point x="203" y="560" type="curve"/>
      <point x="203" y="550" type="line"/>
      <point x="260" y="543"/>
      <point x="264" y="529"/>
      <point x="264" y="378" type="curve" smooth="yes"/>
      <point x="264" y="274" type="line" smooth="yes"/>
      <point x="264" y="125"/>
      <point x="259" y="110"/>
      <point x="196" y="105" type="curve"/>
      <point x="196" y="95" type="line"/>
      <point x="232" y="98"/>
      <point x="272" y="101"/>
      <point x="298" y="101" type="curve" smooth="yes"/>
      <point x="324" y="101"/>
      <point x="366" y="98"/>
    </contour>
  </outline>
</glyph>
<glyph name="comma" format="1">
  <advance width="266"/>
  <unicode hex="002C"/>
  <outline>
    <contour>
      <point x="48" y="40" type="curve"/>
      <point x="38" y="52" type="line"/>
      <point x="60" y="82"/>
      <point x="108" y="129"/>
      <point x="154" y="129" type="curve" smooth="yes"/>
      <point x="212" y="129"/>
      <point x="224" y="86"/>
      <point x="224" y="53" type="curve" smooth="yes"/>
      <point x="224" y="8"/>
      <point x="181" y="-95"/>
      <point x="89" y="-164" type="curve"/>
      <point x="70" y="-154" type="line"/>
      <point x="129.748776055" y="-105.390826261"/>
      <point x="150.0" y="-57.7310344828"/>
      <point x="150" y="-13" type="curve" smooth="yes"/>
      <point x="150.0" y="30.5625"/>
      <point x="118.524590164" y="55.0"/>
      <point x="90" y="55" type="curve" smooth="yes"/>
      <point x="66" y="55"/>
      <point x="56" y="48"/>
    </contour>
  </outline>
</glyph>
<glyph name="hyphen" format="1">
  <advance width="562"/>
  <unicode hex="002D"/>
  <outline>
    <contour>
      <point x="97" y="419" type="line"/>
      <point x="99" y="368"/>
      <point x="93" y="310"/>
      <point x="59" y="242" type="curve"/>
      <point x="72" y="241" type="line"/>
      <point x="92" y="288"/>
      <point x="131" y="296"/>
      <point x="283" y="296" type="curve" smooth="yes"/>
      <point x="347" y="296" type="line" smooth="yes"/>
      <point x="484" y="296"/>
      <point x="493" y="279"/>
      <point x="493" y="238" type="curve"/>
      <point x="504" y="238" type="line"/>
      <point x="500" y="292"/>
      <point x="502" y="363"/>
      <point x="522" y="419" type="curve"/>
      <point x="512" y="419" type="line"/>
      <point x="492" y="365"/>
      <point x="457" y="362"/>
      <point x="303" y="362" type="curve" smooth="yes"/>
      <point x="247" y="362" type="line" smooth="yes"/>
      <point x="118" y="362"/>
      <point x="107" y="369"/>
      <point x="107" y="419" type="curve"/>
    </contour>
  </outline>
</glyph>
<glyph name="period" format="1">
  <advance width="266"/>
  <unicode hex="002E"/>
  <outline>
    <contour>
      <point x="133" y="115" type="curve" smooth="yes"/>
      <point x="173" y="115"/>
      <point x="206" y="82"/>
      <point x="206" y="41" type="curve" smooth="yes"/>
      <point x="206" y="2"/>
      <point x="173" y="-31"/>
      <point x="133" y="-31" type="curve" smooth="yes"/>
      <point x="93" y="-31"/>
      <point x="60" y="2"/>
      <point x="60" y="41" type="curve" smooth="yes"/>
      <point x="60" y="82"/>
      <point x="93" y="115"/>
    </contour>
  </outline>
</glyph>
<glyph name="one" format="1">
  <advance width="395"/>
  <unicode hex="0031"/>
  <outline>
    <contour>
      <point x="361" y="12" type="line"/>
      <point x="269" y="17"/>
      <point x="259" y="38"/>
      <point x="259" y="248" type="curve" smooth="yes"/>
      <point x="259" y="323" type="line" smooth="yes"/>
      <point x="259" y="597"/>
      <point x="262" y="649"/>
      <point x="270" y="694" type="curve"/>
      <point x="259" y="697" type="line"/>
      <point x="220" y="634"/>
      <point x="138" y="559"/>
      <point x="37" y="524" type="curve"/>
      <point x="39" y="508" type="line"/>
      <point x="63" y="517"/>
      <point x="85" y="523"/>
      <point x="106" y="523" type="curve" smooth="yes"/>
      <point x="146" y="523"/>
      <point x="159" y="504"/>
      <point x="159" y="312" type="curve" smooth="yes"/>
      <point x="159" y="248" type="line" smooth="yes"/>
      <point x="159" y="38"/>
      <point x="151" y="17"/>
      <point x="57" y="10" type="curve"/>
      <point x="57" y="-4" type="line"/>
      <point x="110" y="0"/>
      <point x="159" y="4"/>
      <point x="209" y="4" type="curve"/>
      <point x="244" y="4"/>
      <point x="317" y="0"/>
      <point x="361" y="-4" type="curve"/>
    </contour>
  </outline>
</glyph>
<glyph name="two" format="1">
  <advance width="623"/>
  <unicode hex="0032"/>
  <outline>
    <contour>
      <point x="149" y="27" type="line"/>
      <point x="279.689618488" y="120.493342457"/>
      <point x="516" y="322"/>
      <point x="516" y="483" type="curve" smooth="yes"/>
      <point x="516" y="621"/>
      <point x="420" y="700"/>
      <point x="290" y="700" type="curve" smooth="yes"/>
      <point x="153" y="700"/>
      <point x="55" y="615"/>
      <point x="55" y="516" type="curve" smooth="yes"/>
      <point x="55" y="460"/>
      <point x="99" y="411"/>
      <point x="152" y="402" type="curve"/>
      <point x="158" y="410" type="line"/>
      <point x="134" y="425"/>
      <point x="115" y="456"/>
      <point x="115" y="503" type="curve" smooth="yes"/>
      <point x="115" y="584"/>
      <point x="176" y="637"/>
      <point x="259" y="637" type="curve" smooth="yes"/>
      <point x="330" y="637"/>
      <point x="392" y="585"/>
      <point x="392" y="493" type="curve" smooth="yes"/>
      <point x="392.0" y="352.29253112"/>
      <point x="220.58425061" y="153.493289437"/>
      <point x="53" y="12" type="curve"/>
    </contour>
    <contour>
      <point x="138" y="66" type="curve"/>
      <point x="53" y="12" type="line"/>
      <point x="53" y="-4" type="line"/>
      <point x="83.148308911" y="-1.99011273927"/>
      <point x="138" y="0"/>
      <point x="190" y="0" type="curve" smooth="yes"/>
      <point x="304" y="0"/>
      <point x="432.501934385" y="1.55434053161"/>
      <point x="526" y="-4" type="curve"/>
      <point x="526" y="14" type="line" smooth="yes"/>
      <point x="526" y="63"/>
      <point x="522" y="114"/>
      <point x="552" y="211" type="curve"/>
      <point x="534" y="215" type="line"/>
      <point x="515" y="86"/>
      <point x="471" y="54"/>
      <point x="298" y="54" type="curve" smooth="yes"/>
      <point x="236" y="54"/>
      <point x="162" y="62"/>
    </contour>
  </outline>
</glyph>
<glyph name="three" format="1">
  <advance width="618"/>
  <unicode hex="0033"/>
  <outline>
    <contour>
      <point x="292" y="363" type="curve"/>
      <point x="185" y="343" type="line"/>
      <point x="194" y="334" type="line"/>
      <point x="212" y="340"/>
      <point x="230" y="342"/>
      <point x="250" y="342" type="curve" smooth="yes"/>
      <point x="365" y="342"/>
      <point x="436" y="287"/>
      <point x="436" y="192" type="curve" smooth="yes"/>
      <point x="436" y="145"/>
      <point x="425" y="108"/>
      <point x="401" y="80" type="curve" smooth="yes"/>
      <point x="372" y="46"/>
      <point x="331" y="29"/>
      <point x="284" y="30" type="curve" smooth="yes"/>
      <point x="190" y="31"/>
      <point x="109" y="98"/>
      <point x="109" y="184" type="curve" smooth="yes"/>
      <point x="109" y="198"/>
      <point x="111" y="211"/>
      <point x="119" y="221" type="curve"/>
      <point x="111" y="229" type="line"/>
      <point x="93" y="209"/>
      <point x="71" y="166"/>
      <point x="71" y="123" type="curve" smooth="yes"/>
      <point x="71" y="38"/>
      <point x="143" y="-24"/>
      <point x="279" y="-24" type="curve" smooth="yes"/>
      <point x="442" y="-24"/>
      <point x="555" y="74"/>
      <point x="555" y="209" type="curve" smooth="yes"/>
      <point x="555" y="321"/>
      <point x="481" y="381"/>
      <point x="390" y="381" type="curve" smooth="yes"/>
      <point x="356" y="381"/>
      <point x="320" y="375"/>
    </contour>
    <contour>
      <point x="405" y="636" type="line"/>
      <point x="360.328383777" y="562.900991635"/>
      <point x="266" y="425"/>
      <point x="185" y="343" type="curve"/>
      <point x="330" y="357" type="line"/>
      <point x="369" y="413"/>
      <point x="459.794223073" y="541.573936904"/>
      <point x="565" y="666" type="curve"/>
      <point x="563" y="680" type="line"/>
      <point x="540" y="676"/>
      <point x="464" y="666"/>
      <point x="319" y="666" type="curve"/>
      <point x="319" y="639" type="line"/>
    </contour>
    <contour>
      <point x="463" y="603" type="curve"/>
      <point x="463" y="620"/>
      <point x="477" y="652"/>
      <point x="477" y="666" type="curve"/>
      <point x="319" y="666" type="line" smooth="yes"/>
      <point x="250" y="666"/>
      <point x="186" y="672"/>
      <point x="147" y="682" type="curve" smooth="yes"/>
      <point x="127" y="687"/>
      <point x="116" y="694"/>
      <point x="114" y="704" type="curve"/>
      <point x="102" y="702" type="line"/>
      <point x="102" y="666"/>
      <point x="90" y="572"/>
      <point x="65" y="497" type="curve"/>
      <point x="80" y="495" type="line"/>
      <point x="102" y="600"/>
      <point x="133" y="612"/>
      <point x="292" y="612" type="curve" smooth="yes"/>
      <point x="342" y="612"/>
      <point x="401" y="609"/>
    </contour>
  </outline>
</glyph>
<glyph name="four" format="1">
  <advance width="711"/>
  <unicode hex="0034"/>
  <outline>
    <contour>
      <point x="261" y="382" type="curve" smooth="yes"/>
      <point x="395" y="630"/>
      <point x="439" y="657"/>
      <point x="509" y="666" type="curve"/>
      <point x="509" y="680" type="line"/>
      <point x="471" y="674"/>
      <point x="436" y="672"/>
      <point x="352" y="672" type="curve" smooth="yes"/>
      <point x="301" y="672"/>
      <point x="257" y="676"/>
      <point x="224" y="680" type="curve"/>
      <point x="224" y="666" type="line"/>
      <point x="304" y="660"/>
      <point x="332" y="630"/>
      <point x="209" y="414" type="curve" smooth="yes"/>
      <point x="168" y="342"/>
      <point x="110" y="252"/>
      <point x="61" y="194" type="curve"/>
      <point x="176" y="194" type="line"/>
      <point x="193" y="244"/>
      <point x="227" y="318"/>
    </contour>
    <contour>
      <point x="125" y="254" type="curve"/>
      <point x="61" y="194" type="line"/>
      <point x="69" y="180" type="line"/>
      <point x="153" y="188"/>
      <point x="318" y="190"/>
      <point x="426" y="187" type="curve"/>
      <point x="503" y="190"/>
      <point x="604" y="187"/>
      <point x="631" y="184" type="curve"/>
      <point x="632" y="196" type="line"/>
      <point x="626" y="248"/>
      <point x="644" y="329"/>
      <point x="661" y="370" type="curve"/>
      <point x="644" y="374" type="line"/>
      <point x="622" y="271"/>
      <point x="584" y="248"/>
      <point x="486" y="250" type="curve"/>
      <point x="389" y="247" type="line"/>
      <point x="353" y="244"/>
      <point x="307" y="244"/>
      <point x="256" y="244" type="curve" smooth="yes"/>
      <point x="201" y="244"/>
      <point x="154" y="250"/>
    </contour>
    <contour>
      <point x="381" y="384" type="curve"/>
      <point x="382" y="365"/>
      <point x="383" y="282"/>
      <point x="381" y="208" type="curve"/>
      <point x="485" y="208" type="line"/>
      <point x="484" y="291"/>
      <point x="489" y="392"/>
      <point x="494" y="421" type="curve"/>
      <point x="487" y="423" type="line"/>
      <point x="464" y="404"/>
      <point x="416" y="392"/>
    </contour>
    <contour>
      <point x="585" y="-4" type="curve"/>
      <point x="585" y="12" type="line"/>
      <point x="493" y="17"/>
      <point x="483" y="38"/>
      <point x="483" y="248" type="curve" smooth="yes"/>
      <point x="483" y="310" type="line"/>
      <point x="382" y="310" type="line"/>
      <point x="383" y="248" type="line" smooth="yes"/>
      <point x="386" y="38"/>
      <point x="375" y="17"/>
      <point x="281" y="10" type="curve"/>
      <point x="281" y="-4" type="line"/>
      <point x="326" y="0"/>
      <point x="396" y="4"/>
      <point x="433" y="4" type="curve" smooth="yes"/>
      <point x="472" y="4"/>
      <point x="547" y="0"/>
    </contour>
  </outline>
</glyph>
<glyph name="five" format="1">
  <advance width="610"/>
  <unicode hex="0035"/>
  <outline>
    <contour>
      <point x="116" y="672" type="line"/>
      <point x="125.165615696" y="618.02470757"/>
      <point x="118.206712804" y="480.424177431"/>
      <point x="107" y="349" type="curve"/>
      <point x="210" y="375" type="line"/>
      <point x="204.884883596" y="480.371397928"/>
      <point x="215.8853526" y="577.578372244"/>
      <point x="221" y="641" type="curve"/>
    </contour>
    <contour>
      <point x="187" y="404" type="curve"/>
      <point x="107" y="349" type="line"/>
      <point x="116" y="340" type="line"/>
      <point x="143" y="351"/>
      <point x="183" y="364"/>
      <point x="231" y="364" type="curve" smooth="yes"/>
      <point x="346" y="364"/>
      <point x="427" y="300"/>
      <point x="427" y="194" type="curve" smooth="yes"/>
      <point x="427" y="146"/>
      <point x="414" y="111"/>
      <point x="390" y="82" type="curve" smooth="yes"/>
      <point x="360" y="48"/>
      <point x="316" y="29"/>
      <point x="268" y="30" type="curve" smooth="yes"/>
      <point x="180" y="31"/>
      <point x="104" y="89"/>
      <point x="104" y="161" type="curve" smooth="yes"/>
      <point x="104" y="175"/>
      <point x="106" y="188"/>
      <point x="114" y="198" type="curve"/>
      <point x="106" y="206" type="line"/>
      <point x="88" y="186"/>
      <point x="66" y="148"/>
      <point x="66" y="104" type="curve" smooth="yes"/>
      <point x="66" y="26"/>
      <point x="133" y="-24"/>
      <point x="262" y="-24" type="curve" smooth="yes"/>
      <point x="428" y="-24"/>
      <point x="540" y="76"/>
      <point x="540" y="213" type="curve" smooth="yes"/>
      <point x="540" y="347"/>
      <point x="453" y="421"/>
      <point x="326" y="421" type="curve" smooth="yes"/>
      <point x="282" y="421"/>
      <point x="225" y="414"/>
    </contour>
    <contour>
      <point x="193" y="601" type="line" name=""/>
      <point x="213" y="604"/>
      <point x="271" y="612"/>
      <point x="302" y="612" type="curve" smooth="yes" name=""/>
      <point x="448" y="612"/>
      <point x="488" y="595"/>
      <point x="497" y="496" type="curve" name=""/>
      <point x="513" y="499" type="line" name=""/>
      <point x="490" y="589"/>
      <point x="482" y="639"/>
      <point x="491" y="696" type="curve" name=""/>
      <point x="481" y="699" type="line" name=""/>
      <point x="475" y="678"/>
      <point x="460" y="666"/>
      <point x="336" y="666" type="curve" smooth="yes" name=""/>
      <point x="235" y="666"/>
      <point x="137" y="672"/>
      <point x="118" y="680" type="curve"/>
      <point x="116" y="672" type="line"/>
    </contour>
  </outline>
</glyph>
<glyph name="six" format="1">
  <advance width="658"/>
  <unicode hex="0036"/>
  <outline>
    <contour>
      <point x="212" y="126" type="line"/>
      <point x="200" y="158"/>
      <point x="196" y="185"/>
      <point x="196" y="213" type="curve" smooth="yes"/>
      <point x="196" y="291"/>
      <point x="246" y="361"/>
      <point x="338" y="361" type="curve" smooth="yes"/>
      <point x="422" y="361"/>
      <point x="480" y="288"/>
      <point x="480" y="185" type="curve" smooth="yes"/>
      <point x="480" y="88"/>
      <point x="429" y="30"/>
      <point x="350" y="30" type="curve" smooth="yes"/>
      <point x="271" y="30"/>
      <point x="184" y="106"/>
      <point x="181" y="266" type="curve"/>
      <point x="168" y="267" type="line"/>
      <point x="141" y="505"/>
      <point x="238.0" y="643.0"/>
      <point x="392" y="643" type="curve" smooth="yes"/>
      <point x="457" y="643"/>
      <point x="499" y="611"/>
      <point x="518" y="587" type="curve" smooth="yes"/>
      <point x="535.397672613" y="563.803103183"/>
      <point x="541" y="538"/>
      <point x="537" y="520" type="curve"/>
      <point x="547" y="520" type="line"/>
      <point x="558" y="533"/>
      <point x="578.151065044" y="575.259528327"/>
      <point x="577" y="619" type="curve" smooth="yes"/>
      <point x="576" y="659"/>
      <point x="526" y="700"/>
      <point x="428" y="700" type="curve" smooth="yes"/>
      <point x="378" y="700"/>
      <point x="312" y="696"/>
      <point x="243" y="661" type="curve" smooth="yes"/>
      <point x="130.101014636" y="604.550507318"/>
      <point x="48" y="474"/>
      <point x="48" y="319" type="curve" smooth="yes"/>
      <point x="48" y="117"/>
      <point x="151" y="-24"/>
      <point x="334" y="-24" type="curve" smooth="yes"/>
      <point x="515" y="-24"/>
      <point x="593" y="109"/>
      <point x="593" y="218" type="curve" smooth="yes"/>
      <point x="593" y="351"/>
      <point x="486" y="435"/>
      <point x="368" y="435" type="curve" smooth="yes"/>
      <point x="239" y="435"/>
      <point x="157" y="334"/>
      <point x="151" y="200" type="curve"/>
    </contour>
  </outline>
</glyph>
<glyph name="seven" format="1">
  <advance width="582"/>
  <unicode hex="0037"/>
  <outline>
    <contour>
      <point x="376" y="-4" type="curve"/>
      <point x="376" y="12" type="line"/>
      <point x="320" y="12"/>
      <point x="304" y="28"/>
      <point x="348" y="145" type="curve" smooth="yes"/>
      <point x="441" y="392"/>
      <point x="547" y="608"/>
      <point x="582" y="666" type="curve"/>
      <point x="580" y="680" type="line"/>
      <point x="550.345011927" y="672.841899431"/>
      <point x="413.634980989" y="666.0"/>
      <point x="318" y="666" type="curve"/>
      <point x="318" y="642" type="line"/>
      <point x="434" y="630" type="line"/>
      <point x="406" y="533"/>
      <point x="314" y="307"/>
      <point x="262" y="187" type="curve" smooth="yes"/>
      <point x="199" y="44"/>
      <point x="170" y="16"/>
      <point x="91" y="12" type="curve"/>
      <point x="91" y="-4" type="line"/>
      <point x="128" y="0"/>
      <point x="177" y="4"/>
      <point x="218" y="4" type="curve" smooth="yes"/>
      <point x="260" y="4"/>
      <point x="340" y="0"/>
    </contour>
    <contour>
      <point x="437" y="603" type="curve"/>
      <point x="437" y="620"/>
      <point x="451" y="652"/>
      <point x="451" y="666" type="curve"/>
      <point x="293" y="666" type="line" smooth="yes"/>
      <point x="224" y="666"/>
      <point x="160" y="672"/>
      <point x="121" y="682" type="curve" smooth="yes"/>
      <point x="101" y="687"/>
      <point x="90" y="694"/>
      <point x="88" y="704" type="curve"/>
      <point x="76" y="702" type="line"/>
      <point x="76" y="666"/>
      <point x="64" y="572"/>
      <point x="39" y="497" type="curve"/>
      <point x="54" y="495" type="line"/>
      <point x="76" y="600"/>
      <point x="107" y="612"/>
      <point x="266" y="612" type="curve" smooth="yes"/>
      <point x="316" y="612"/>
      <point x="375" y="609"/>
    </contour>
  </outline>
</glyph>
<glyph name="eight" format="1">
  <advance width="680"/>
  <unicode hex="0038"/>
  <outline>
    <contour>
      <point x="334" y="-24" type="curve" smooth="yes"/>
      <point x="499.0" y="-24.0"/>
      <point x="607" y="60"/>
      <point x="607" y="206" type="curve" smooth="yes"/>
      <point x="607" y="300"/>
      <point x="537.991548009" y="378.000640302"/>
      <point x="406" y="388" type="curve"/>
      <point x="335" y="384" type="line"/>
      <point x="284" y="388" type="line"/>
      <point x="163.004292291" y="381.000248314"/>
      <point x="73" y="299"/>
      <point x="73" y="189" type="curve" smooth="yes"/>
      <point x="73" y="71"/>
      <point x="170.0" y="-24.0"/>
    </contour>
    <contour>
      <point x="344" y="30" type="curve" smooth="yes"/>
      <point x="253.0" y="30.0"/>
      <point x="192" y="102"/>
      <point x="192" y="202" type="curve" smooth="yes"/>
      <point x="192" y="279"/>
      <point x="245.0" y="347.0"/>
      <point x="340" y="347" type="curve" smooth="yes"/>
      <point x="433.0" y="347.0"/>
      <point x="486" y="276"/>
      <point x="486" y="192" type="curve" smooth="yes"/>
      <point x="486" y="86"/>
      <point x="425.0" y="30.0"/>
    </contour>
    <contour>
      <point x="415" y="377" type="line"/>
      <point x="511.140983397" y="394.908614554"/>
      <point x="555.0" y="470.0"/>
      <point x="555" y="540" type="curve" smooth="yes"/>
      <point x="555.0" y="622.0"/>
      <point x="494.589041096" y="700.0"/>
      <point x="345" y="700" type="curve" smooth="yes"/>
      <point x="199.449152542" y="700.0"/>
      <point x="116.0" y="619.0"/>
      <point x="116" y="537" type="curve" smooth="yes"/>
      <point x="116.0" y="448.0"/>
      <point x="178.411940564" y="391.216175816"/>
      <point x="249" y="375" type="curve"/>
      <point x="334" y="371" type="line"/>
    </contour>
    <contour>
      <point x="229" y="544" type="curve" smooth="yes"/>
      <point x="229.0" y="611.0"/>
      <point x="281.530973451" y="648.0"/>
      <point x="335" y="648" type="curve" smooth="yes"/>
      <point x="407.15" y="648.0"/>
      <point x="446.0" y="594.0"/>
      <point x="446" y="534" type="curve" smooth="yes"/>
      <point x="446.0" y="459.0"/>
      <point x="412.842105263" y="401.0"/>
      <point x="341" y="401" type="curve" smooth="yes"/>
      <point x="270.411764706" y="401.0"/>
      <point x="229.0" y="469.0"/>
    </contour>
  </outline>
</glyph>
<glyph name="nine" format="1">
  <advance width="634"/>
  <unicode hex="0039"/>
  <outline>
    <contour>
      <point x="416" y="572" type="line"/>
      <point x="427.487025777" y="545.893123235"/>
      <point x="431.947438719" y="520.419154587"/>
      <point x="433" y="492" type="curve" smooth="yes"/>
      <point x="435" y="418"/>
      <point x="403" y="336"/>
      <point x="307" y="337" type="curve" smooth="yes"/>
      <point x="233" y="337"/>
      <point x="171" y="405"/>
      <point x="171" y="504" type="curve" smooth="yes"/>
      <point x="171.0" y="590.434782609"/>
      <point x="220.0" y="646.0"/>
      <point x="303" y="646" type="curve" smooth="yes"/>
      <point x="388.0" y="646.0"/>
      <point x="441.945964775" y="582.881878688"/>
      <point x="445" y="420" type="curve"/>
      <point x="449" y="420" type="line"/>
      <point x="453" y="388"/>
      <point x="458" y="358"/>
      <point x="458" y="317" type="curve" smooth="yes"/>
      <point x="458" y="152"/>
      <point x="395" y="31"/>
      <point x="258" y="31" type="curve" smooth="yes"/>
      <point x="154" y="31"/>
      <point x="99" y="98"/>
      <point x="114" y="159" type="curve"/>
      <point x="106" y="159" type="line"/>
      <point x="86" y="141"/>
      <point x="67" y="115"/>
      <point x="67" y="86" type="curve" smooth="yes"/>
      <point x="67" y="15"/>
      <point x="151" y="-24"/>
      <point x="247" y="-24" type="curve" smooth="yes"/>
      <point x="454" y="-24"/>
      <point x="580" y="108"/>
      <point x="580" y="355" type="curve" smooth="yes"/>
      <point x="580.0" y="568.475073314"/>
      <point x="480.000067808" y="701.00000039"/>
      <point x="306" y="700" type="curve" smooth="yes"/>
      <point x="151.999880319" y="698.999999223"/>
      <point x="61.0" y="587.99086758"/>
      <point x="61" y="477" type="curve" smooth="yes"/>
      <point x="61" y="338"/>
      <point x="166" y="264"/>
      <point x="283" y="264" type="curve" smooth="yes"/>
      <point x="395" y="264"/>
      <point x="477" y="358"/>
      <point x="468" y="486" type="curve"/>
    </contour>
  </outline>
</glyph>
<glyph name="question" format="1">
  <advance width="388"/>
  <unicode hex="003F"/>
  <outline>
    <contour>
      <point x="187" y="184" type="curve" smooth="yes"/>
      <point x="224" y="183"/>
      <point x="283" y="214"/>
      <point x="306" y="239" type="curve"/>
      <point x="297" y="251" type="line"/>
      <point x="284" y="235"/>
      <point x="269" y="228"/>
      <point x="257" y="228" type="curve" smooth="yes"/>
      <point x="231" y="228"/>
      <point x="208" y="254"/>
      <point x="208" y="294" type="curve" smooth="yes"/>
      <point x="208" y="327"/>
      <point x="233" y="374"/>
      <point x="262" y="415" type="curve" smooth="yes"/>
      <point x="294" y="461"/>
      <point x="342" y="506"/>
      <point x="342" y="574" type="curve" smooth="yes"/>
      <point x="342" y="625"/>
      <point x="294" y="692"/>
      <point x="197" y="692" type="curve" smooth="yes"/>
      <point x="109" y="692"/>
      <point x="44" y="649"/>
      <point x="44" y="595" type="curve" smooth="yes"/>
      <point x="44" y="561"/>
      <point x="73" y="537"/>
      <point x="100" y="531" type="curve"/>
      <point x="108" y="539" type="line"/>
      <point x="98" y="546"/>
      <point x="92" y="565"/>
      <point x="92" y="581" type="curve" smooth="yes"/>
      <point x="92" y="629"/>
      <point x="135" y="644"/>
      <point x="165" y="644" type="curve" smooth="yes"/>
      <point x="222" y="644"/>
      <point x="247" y="595"/>
      <point x="247" y="538" type="curve" smooth="yes"/>
      <point x="247" y="505"/>
      <point x="229" y="461"/>
      <point x="196" y="402" type="curve" smooth="yes"/>
      <point x="151" y="322"/>
      <point x="125" y="269"/>
      <point x="125" y="239" type="curve" smooth="yes"/>
      <point x="125" y="214"/>
      <point x="135" y="183"/>
    </contour>
    <contour>
      <point x="200" y="108" type="curve" smooth="yes"/>
      <point x="238" y="108"/>
      <point x="270" y="76"/>
      <point x="270" y="37" type="curve" smooth="yes"/>
      <point x="270" y="0"/>
      <point x="238" y="-32"/>
      <point x="200" y="-32" type="curve" smooth="yes"/>
      <point x="162" y="-32"/>
      <point x="130" y="0"/>
      <point x="130" y="37" type="curve" smooth="yes"/>
      <point x="130" y="76"/>
      <point x="162" y="108"/>
    </contour>
  </outline>
</glyph>
<glyph name="B" format="1">
  <advance width="660"/>
  <unicode hex="0042"/>
  <outline>
    <contour>
      <point x="209" y="375" type="line"/>
      <point x="200" y="328" type="line"/>
      <point x="220" y="333"/>
      <point x="247" y="338"/>
      <point x="286" y="338" type="curve" smooth="yes"/>
      <point x="343" y="338"/>
      <point x="398" y="325"/>
      <point x="430" y="302" type="curve" smooth="yes"/>
      <point x="469" y="274"/>
      <point x="486" y="228"/>
      <point x="486" y="182" type="curve" smooth="yes"/>
      <point x="486" y="90"/>
      <point x="431" y="45"/>
      <point x="347" y="45" type="curve" smooth="yes"/>
      <point x="269" y="45"/>
      <point x="225" y="74"/>
      <point x="205" y="93" type="curve"/>
      <point x="170" y="1" type="line"/>
      <point x="211" y="1"/>
      <point x="291" y="-6"/>
      <point x="352" y="-6" type="curve" smooth="yes"/>
      <point x="472" y="-6"/>
      <point x="594" y="49"/>
      <point x="594" y="203" type="curve" smooth="yes"/>
      <point x="594" y="305"/>
      <point x="497" y="392"/>
      <point x="342" y="377" type="curve"/>
      <point x="306" y="377" type="line"/>
    </contour>
    <contour>
      <point x="543" y="530" type="curve" smooth="yes"/>
      <point x="543" y="637"/>
      <point x="448" y="676"/>
      <point x="339" y="676" type="curve" smooth="yes"/>
      <point x="287" y="676"/>
      <point x="235" y="672"/>
      <point x="191" y="672" type="curve"/>
      <point x="220" y="609" type="line"/>
      <point x="238" y="617"/>
      <point x="275" y="623"/>
      <point x="307" y="623" type="curve" smooth="yes"/>
      <point x="416" y="623"/>
      <point x="449" y="567"/>
      <point x="449" y="511" type="curve" smooth="yes"/>
      <point x="449" y="444"/>
      <point x="402" y="393"/>
      <point x="319" y="393" type="curve" smooth="yes"/>
      <point x="265" y="393"/>
      <point x="240" y="401"/>
      <point x="222" y="405" type="curve"/>
      <point x="221" y="369" type="line"/>
      <point x="360" y="373" type="line"/>
      <point x="403" y="376"/>
      <point x="430" y="381"/>
      <point x="462" y="397" type="curve" smooth="yes"/>
      <point x="494" y="413"/>
      <point x="543" y="458"/>
    </contour>
    <contour>
      <point x="252" y="2" type="line"/>
      <point x="249" y="111"/>
      <point x="250" y="231"/>
      <point x="251" y="351" type="curve"/>
      <point x="250" y="359" type="line"/>
      <point x="247" y="479"/>
      <point x="250" y="572"/>
      <point x="253" y="672" type="curve"/>
      <point x="183" y="672" type="line"/>
      <point x="156" y="672"/>
      <point x="90" y="676"/>
      <point x="52" y="680" type="curve"/>
      <point x="52" y="666" type="line"/>
      <point x="139" y="662"/>
      <point x="150" y="637"/>
      <point x="150" y="424" type="curve" smooth="yes"/>
      <point x="150" y="250" type="line" smooth="yes"/>
      <point x="150" y="44"/>
      <point x="146" y="13"/>
      <point x="48" y="12" type="curve"/>
      <point x="48" y="-4" type="line"/>
      <point x="101" y="0"/>
      <point x="135" y="1"/>
      <point x="174" y="1" type="curve"/>
    </contour>
  </outline>
</glyph>
<glyph name="C" format="1">
  <advance width="688"/>
  <unicode hex="0043"/>
  <outline>
    <contour>
      <point x="586" y="475" type="curve"/>
      <point x="601" y="478" type="line"/>
      <point x="597" y="517"/>
      <point x="596" y="548"/>
      <point x="596" y="574" type="curve" smooth="yes"/>
      <point x="596" y="627"/>
      <point x="604" y="664"/>
      <point x="614" y="686" type="curve"/>
      <point x="604" y="691" type="line"/>
      <point x="600" y="679"/>
      <point x="580" y="676"/>
      <point x="560" y="676" type="curve" smooth="yes"/>
      <point x="531" y="676"/>
      <point x="469" y="684"/>
      <point x="409" y="684" type="curve" smooth="yes"/>
      <point x="165" y="684"/>
      <point x="54" y="524"/>
      <point x="54" y="352" type="curve" smooth="yes"/>
      <point x="54" y="156"/>
      <point x="178" y="-10"/>
      <point x="441" y="-10" type="curve" smooth="yes"/>
      <point x="505" y="-10"/>
      <point x="556" y="0"/>
      <point x="575" y="0" type="curve"/>
      <point x="575" y="5" type="line" smooth="yes"/>
      <point x="575" y="26"/>
      <point x="574" y="73"/>
      <point x="609" y="178" type="curve"/>
      <point x="593" y="184" type="line"/>
      <point x="576" y="86"/>
      <point x="536" y="44"/>
      <point x="434" y="44" type="curve" smooth="yes"/>
      <point x="285" y="44"/>
      <point x="171" y="174"/>
      <point x="171" y="368" type="curve" smooth="yes"/>
      <point x="171" y="547"/>
      <point x="271" y="629"/>
      <point x="403" y="629" type="curve" smooth="yes"/>
      <point x="461" y="629"/>
      <point x="517" y="613"/>
      <point x="549" y="588" type="curve" smooth="yes"/>
      <point x="579" y="564"/>
      <point x="588" y="529"/>
    </contour>
  </outline>
</glyph>
<glyph name="E" format="1">
  <advance width="617"/>
  <unicode hex="0045"/>
  <outline>
    <contour>
      <point x="200" y="607" type="line" name=""/>
      <point x="220" y="610"/>
      <point x="278" y="618"/>
      <point x="309" y="618" type="curve" smooth="yes" name=""/>
      <point x="463" y="618"/>
      <point x="506" y="600"/>
      <point x="515" y="496" type="curve" name=""/>
      <point x="531" y="499" type="line" name=""/>
      <point x="508" y="588"/>
      <point x="500" y="642"/>
      <point x="509" y="698" type="curve" name=""/>
      <point x="499" y="701" type="line" name=""/>
      <point x="493" y="681"/>
      <point x="466" y="672"/>
      <point x="367" y="672" type="curve" name=""/>
      <point x="224" y="669" type="line" name=""/>
    </contour>
    <contour>
      <point x="214" y="323" type="line"/>
      <point x="228" y="324"/>
      <point x="268" y="326"/>
      <point x="281" y="326" type="curve" smooth="yes"/>
      <point x="340" y="326"/>
      <point x="389" y="321"/>
      <point x="422" y="299" type="curve" smooth="yes"/>
      <point x="443" y="286"/>
      <point x="460" y="264"/>
      <point x="479" y="228" type="curve"/>
      <point x="492" y="236" type="line"/>
      <point x="452" y="294"/>
      <point x="433" y="356"/>
      <point x="420" y="392" type="curve" smooth="yes"/>
      <point x="406" y="430"/>
      <point x="400" y="461"/>
      <point x="394" y="495" type="curve"/>
      <point x="378" y="493" type="line"/>
      <point x="407" y="403"/>
      <point x="369" y="383"/>
      <point x="295" y="383" type="curve" smooth="yes"/>
      <point x="269" y="383"/>
      <point x="228" y="386"/>
      <point x="214" y="387" type="curve"/>
    </contour>
    <contour>
      <point x="269" y="0"/>
      <point x="399" y="0"/>
      <point x="525" y="-4" type="curve"/>
      <point x="527" y="10" type="line"/>
      <point x="528" y="49"/>
      <point x="550" y="135"/>
      <point x="563" y="170" type="curve"/>
      <point x="548" y="176" type="line"/>
      <point x="530" y="79"/>
      <point x="486" y="53"/>
      <point x="379" y="53" type="curve" smooth="yes"/>
      <point x="322" y="53"/>
      <point x="262" y="61"/>
      <point x="191" y="86" type="curve"/>
      <point x="154" y="0" type="line"/>
    </contour>
    <contour>
      <point x="217" y="0" type="curve"/>
      <point x="251" y="33" type="line"/>
      <point x="250" y="144"/>
      <point x="248" y="255"/>
      <point x="252" y="342" type="curve"/>
      <point x="251" y="364" type="line"/>
      <point x="248" y="477"/>
      <point x="249" y="571"/>
      <point x="253" y="643" type="curve"/>
      <point x="367" y="646" type="line"/>
      <point x="367" y="672" type="line"/>
      <point x="326" y="672"/>
      <point x="149" y="670"/>
      <point x="52" y="680" type="curve"/>
      <point x="52" y="666" type="line"/>
      <point x="141" y="663"/>
      <point x="150" y="633"/>
      <point x="150" y="420" type="curve" smooth="yes"/>
      <point x="150" y="245" type="line" smooth="yes"/>
      <point x="150" y="38"/>
      <point x="142" y="13"/>
      <point x="48" y="12" type="curve"/>
      <point x="48" y="-4" type="line"/>
      <point x="101" y="0"/>
      <point x="143" y="0"/>
    </contour>
  </outline>
</glyph>
<glyph name="G" format="1">
  <advance width="729"/>
  <unicode hex="0047"/>
  <outline>
    <contour>
      <point x="611" y="154" type="curve" smooth="yes"/>
      <point x="611" y="284"/>
      <point x="621" y="299"/>
      <point x="682" y="302" type="curve"/>
      <point x="682" y="317" type="line"/>
      <point x="648" y="312"/>
      <point x="615" y="308"/>
      <point x="575" y="308" type="curve" smooth="yes"/>
      <point x="522" y="308"/>
      <point x="462" y="311"/>
      <point x="421" y="317" type="curve"/>
      <point x="421" y="302" type="line"/>
      <point x="507" y="297"/>
      <point x="520" y="271"/>
      <point x="520" y="128" type="curve" smooth="yes"/>
      <point x="520" y="95"/>
      <point x="519" y="68"/>
      <point x="518" y="40" type="curve" smooth="yes"/>
      <point x="517" y="24"/>
      <point x="485" y="16"/>
      <point x="435" y="23" type="curve"/>
      <point x="435" y="8" type="line"/>
      <point x="472" y="4"/>
      <point x="494" y="12"/>
      <point x="543" y="12" type="curve" smooth="yes"/>
      <point x="569" y="12"/>
      <point x="598" y="8"/>
      <point x="615" y="11" type="curve"/>
      <point x="615" y="29" type="line"/>
      <point x="610" y="52"/>
      <point x="611" y="107"/>
    </contour>
    <contour>
      <point x="615" y="11" type="curve"/>
      <point x="601" y="13"/>
      <point x="591" y="43"/>
      <point x="591" y="51" type="curve" smooth="yes"/>
      <point x="591" y="92"/>
      <point x="597" y="108"/>
      <point x="606" y="126" type="curve"/>
      <point x="590" y="126" type="line"/>
      <point x="563" y="69"/>
      <point x="522" y="44"/>
      <point x="455" y="44" type="curve" smooth="yes"/>
      <point x="271" y="44"/>
      <point x="175" y="197"/>
      <point x="175" y="354" type="curve" smooth="yes"/>
      <point x="175" y="548"/>
      <point x="282" y="629"/>
      <point x="419" y="629" type="curve" smooth="yes"/>
      <point x="481" y="629"/>
      <point x="537" y="611"/>
      <point x="572" y="586" type="curve" smooth="yes"/>
      <point x="603" y="562"/>
      <point x="612" y="528"/>
      <point x="610" y="475" type="curve"/>
      <point x="625" y="478" type="line"/>
      <point x="621" y="517"/>
      <point x="620" y="548"/>
      <point x="620" y="574" type="curve" smooth="yes"/>
      <point x="620" y="627"/>
      <point x="628" y="664"/>
      <point x="638" y="686" type="curve"/>
      <point x="628" y="691" type="line"/>
      <point x="624" y="680"/>
      <point x="608" y="676"/>
      <point x="591" y="676" type="curve" smooth="yes"/>
      <point x="560" y="676"/>
      <point x="498" y="684"/>
      <point x="427" y="684" type="curve" smooth="yes"/>
      <point x="179" y="684"/>
      <point x="55" y="523"/>
      <point x="55" y="345" type="curve" smooth="yes"/>
      <point x="55" y="147"/>
      <point x="200" y="-11"/>
      <point x="436" y="-11" type="curve" smooth="yes"/>
      <point x="489" y="-11"/>
      <point x="572" y="-2"/>
    </contour>
  </outline>
</glyph>
<glyph name="H" format="1">
  <advance width="800.0"/>
  <unicode hex="0048"/>
  <outline>
    <contour>
      <point x="551" y="397" type="line"/>
      <point x="512" y="395"/>
      <point x="458" y="394"/>
      <point x="407" y="394" type="curve" smooth="yes"/>
      <point x="367" y="394"/>
      <point x="295" y="395"/>
      <point x="249" y="397" type="curve"/>
      <point x="249" y="333" type="line"/>
      <point x="289" y="334"/>
      <point x="346" y="335"/>
      <point x="392" y="335" type="curve" smooth="yes"/>
      <point x="448" y="335"/>
      <point x="510" y="334"/>
      <point x="551" y="333" type="curve"/>
    </contour>
    <contour>
      <point x="250" y="424" type="line"/>
      <point x="250" y="638"/>
      <point x="261" y="662"/>
      <point x="348" y="666" type="curve"/>
      <point x="348" y="680" type="line"/>
      <point x="305" y="675"/>
      <point x="232" y="672"/>
      <point x="200" y="672" type="curve" smooth="yes"/>
      <point x="169" y="672"/>
      <point x="95" y="675"/>
      <point x="52" y="680" type="curve"/>
      <point x="52" y="666" type="line"/>
      <point x="139" y="662"/>
      <point x="150" y="638"/>
      <point x="150" y="424" type="curve" smooth="yes"/>
      <point x="150" y="248" type="line" smooth="yes"/>
      <point x="150" y="39"/>
      <point x="142" y="12"/>
      <point x="48" y="12" type="curve"/>
      <point x="48" y="-4" type="line"/>
      <point x="101" y="0"/>
      <point x="161" y="4"/>
      <point x="200" y="4" type="curve" smooth="yes"/>
      <point x="239" y="4"/>
      <point x="301" y="0"/>
      <point x="352" y="-4" type="curve"/>
      <point x="352" y="12" type="line"/>
      <point x="258" y="12"/>
      <point x="250" y="39"/>
      <point x="250" y="248" type="curve" smooth="yes"/>
    </contour>
    <contour>
      <point x="650" y="424" type="line"/>
      <point x="650" y="638"/>
      <point x="661" y="662"/>
      <point x="748" y="666" type="curve"/>
      <point x="748" y="680" type="line"/>
      <point x="705" y="675"/>
      <point x="632" y="672"/>
      <point x="600" y="672" type="curve" smooth="yes"/>
      <point x="569" y="672"/>
      <point x="495" y="675"/>
      <point x="452" y="680" type="curve"/>
      <point x="452" y="666" type="line"/>
      <point x="539" y="662"/>
      <point x="550" y="638"/>
      <point x="550" y="424" type="curve" smooth="yes"/>
      <point x="550" y="248" type="line" smooth="yes"/>
      <point x="550" y="39"/>
      <point x="542" y="12"/>
      <point x="448" y="12" type="curve"/>
      <point x="448" y="-4" type="line"/>
      <point x="501" y="0"/>
      <point x="561" y="4"/>
      <point x="600" y="4" type="curve" smooth="yes"/>
      <point x="639" y="4"/>
      <point x="701" y="0"/>
      <point x="752" y="-4" type="curve"/>
      <point x="752" y="12" type="line"/>
      <point x="658" y="12"/>
      <point x="650" y="39"/>
      <point x="650" y="248" type="curve" smooth="yes"/>
    </contour>
  </outline>
</glyph>
<glyph name="K" format="1">
  <advance width="692"/>
  <unicode hex="004B"/>
  <outline>
    <contour>
      <point x="418" y="680" type="curve"/>
      <point x="418" y="666" type="line"/>
      <point x="496" y="666"/>
      <point x="489" y="588"/>
      <point x="392" y="477" type="curve" smooth="yes"/>
      <point x="334" y="411"/>
      <point x="289" y="378"/>
      <point x="271" y="373" type="curve"/>
      <point x="271" y="361" type="line"/>
      <point x="386" y="368" type="line"/>
      <point x="431" y="431"/>
      <point x="455" y="468"/>
      <point x="491" y="512" type="curve" smooth="yes"/>
      <point x="580" y="622"/>
      <point x="611" y="664"/>
      <point x="692" y="666" type="curve"/>
      <point x="692" y="680" type="line"/>
      <point x="653" y="676"/>
      <point x="608" y="672"/>
      <point x="558" y="672" type="curve" smooth="yes"/>
      <point x="508" y="672"/>
      <point x="453" y="676"/>
    </contour>
    <contour>
      <point x="271" y="361" type="line"/>
      <point x="324" y="291"/>
      <point x="496" y="81"/>
      <point x="654" y="-68" type="curve"/>
      <point x="665" y="-60" type="line"/>
      <point x="584" y="67"/>
      <point x="446" y="311"/>
      <point x="390" y="436" type="curve"/>
      <point x="344" y="382" type="line"/>
    </contour>
    <contour>
      <point x="150" y="338" type="line"/>
      <point x="150" y="248" type="line" smooth="yes"/>
      <point x="150" y="39"/>
      <point x="142" y="12"/>
      <point x="48" y="12" type="curve"/>
      <point x="48" y="-4" type="line"/>
      <point x="101" y="0"/>
      <point x="161" y="4"/>
      <point x="200" y="4" type="curve" smooth="yes"/>
      <point x="235" y="4"/>
      <point x="290" y="0"/>
      <point x="336" y="-4" type="curve"/>
      <point x="336" y="12" type="line"/>
      <point x="257" y="12"/>
      <point x="250" y="39"/>
      <point x="250" y="248" type="curve" smooth="yes"/>
      <point x="250" y="339" type="line"/>
    </contour>
    <contour>
      <point x="250" y="424" type="line" smooth="yes"/>
      <point x="250" y="638"/>
      <point x="259" y="663"/>
      <point x="332" y="666" type="curve"/>
      <point x="332" y="680" type="line"/>
      <point x="294" y="676"/>
      <point x="229" y="672"/>
      <point x="200" y="672" type="curve" smooth="yes"/>
      <point x="169" y="672"/>
      <point x="95" y="675"/>
      <point x="52" y="680" type="curve"/>
      <point x="52" y="666" type="line"/>
      <point x="139" y="662"/>
      <point x="150" y="638"/>
      <point x="150" y="424" type="curve"/>
      <point x="150" y="338" type="line"/>
      <point x="250" y="339" type="line"/>
    </contour>
  </outline>
</glyph>
<glyph name="O" format="1">
  <advance width="771"/>
  <unicode hex="004F"/>
  <outline>
    <contour>
      <point x="169" y="358" type="curve" smooth="yes"/>
      <point x="169" y="538"/>
      <point x="250" y="642"/>
      <point x="378" y="642" type="curve" smooth="yes"/>
      <point x="509" y="642"/>
      <point x="603" y="507"/>
      <point x="603" y="318" type="curve" smooth="yes"/>
      <point x="603" y="118"/>
      <point x="515" y="32"/>
      <point x="397" y="32" type="curve" smooth="yes"/>
      <point x="255" y="32"/>
      <point x="169" y="184"/>
    </contour>
    <contour>
      <point x="54" y="338" type="curve" smooth="yes"/>
      <point x="54" y="126"/>
      <point x="192" y="-24"/>
      <point x="386" y="-24" type="curve" smooth="yes"/>
      <point x="569" y="-24"/>
      <point x="717" y="111"/>
      <point x="717" y="353" type="curve" smooth="yes"/>
      <point x="717" y="540"/>
      <point x="592" y="700"/>
      <point x="393" y="700" type="curve" smooth="yes"/>
      <point x="201" y="700"/>
      <point x="54" y="555"/>
    </contour>
  </outline>
</glyph>
<glyph name="Q" format="1">
  <advance width="771"/>
  <unicode hex="0051"/>
  <outline>
    <contour>
      <point x="280" y="6" type="line"/>
      <point x="298" y="-15"/>
      <point x="361" y="-82"/>
      <point x="415" y="-131" type="curve" smooth="yes"/>
      <point x="493" y="-202"/>
      <point x="557" y="-240"/>
      <point x="619" y="-240" type="curve" smooth="yes"/>
      <point x="707" y="-240"/>
      <point x="805" y="-202"/>
      <point x="849" y="-160" type="curve"/>
      <point x="839" y="-145" type="line"/>
      <point x="825" y="-165"/>
      <point x="786" y="-186"/>
      <point x="739" y="-186" type="curve" smooth="yes"/>
      <point x="682" y="-186"/>
      <point x="615" y="-170"/>
      <point x="543" y="-130" type="curve" smooth="yes"/>
      <point x="512" y="-114"/>
      <point x="425" y="-62"/>
      <point x="372" y="5" type="curve"/>
    </contour>
    <component base="O"/>
  </outline>
</glyph>
<glyph name="S" format="1">
  <advance width="566"/>
  <unicode hex="0053"/>
  <outline>
    <contour>
      <point x="301" y="683" type="curve" smooth="yes"/>
      <point x="175" y="683"/>
      <point x="95" y="616"/>
      <point x="95" y="515" type="curve" smooth="yes"/>
      <point x="95" y="425"/>
      <point x="170" y="369"/>
      <point x="209" y="340" type="curve" smooth="yes"/>
      <point x="258" y="306"/>
      <point x="292" y="276"/>
      <point x="314" y="256" type="curve" smooth="yes"/>
      <point x="360" y="214"/>
      <point x="377" y="181"/>
      <point x="377" y="141" type="curve" smooth="yes"/>
      <point x="377" y="76"/>
      <point x="329" y="33"/>
      <point x="259" y="33" type="curve" smooth="yes"/>
      <point x="188" y="33"/>
      <point x="94" y="70"/>
      <point x="82" y="202" type="curve"/>
      <point x="68" y="197" type="line"/>
      <point x="95" y="79"/>
      <point x="81" y="13"/>
      <point x="73" y="-3" type="curve"/>
      <point x="83" y="-6" type="line"/>
      <point x="88" y="-2"/>
      <point x="98" y="-2"/>
      <point x="103" y="-2" type="curve" smooth="yes"/>
      <point x="114" y="-2"/>
      <point x="133" y="-4"/>
      <point x="155" y="-8" type="curve" smooth="yes"/>
      <point x="183" y="-13"/>
      <point x="218" y="-18"/>
      <point x="253" y="-18" type="curve" smooth="yes"/>
      <point x="412" y="-18"/>
      <point x="484" y="56"/>
      <point x="484" y="171" type="curve" smooth="yes"/>
      <point x="484" y="277"/>
      <point x="414" y="319"/>
      <point x="336" y="380" type="curve" smooth="yes"/>
      <point x="263" y="438"/>
      <point x="201" y="478"/>
      <point x="201" y="537" type="curve" smooth="yes"/>
      <point x="201" y="602"/>
      <point x="250" y="631"/>
      <point x="311" y="631" type="curve" smooth="yes"/>
      <point x="348" y="631"/>
      <point x="390" y="620"/>
      <point x="414" y="603" type="curve" smooth="yes"/>
      <point x="450" y="579"/>
      <point x="454" y="531"/>
      <point x="453" y="485" type="curve"/>
      <point x="468" y="487" type="line"/>
      <point x="454" y="602"/>
      <point x="462" y="647"/>
      <point x="473" y="680" type="curve"/>
      <point x="464" y="682" type="line"/>
      <point x="459" y="675"/>
      <point x="450" y="674"/>
      <point x="439" y="674" type="curve" smooth="yes"/>
      <point x="417" y="674"/>
      <point x="357" y="683"/>
    </contour>
  </outline>
</glyph>
<glyph name="T" format="1">
  <advance width="630"/>
  <unicode hex="0054"/>
  <outline>
    <contour>
      <point x="267" y="631" type="line"/>
      <point x="268" y="530"/>
      <point x="268" y="499"/>
      <point x="268" y="439" type="curve" smooth="yes"/>
      <point x="268" y="324" type="line"/>
      <point x="368" y="324" type="line"/>
      <point x="368" y="439" type="line" smooth="yes"/>
      <point x="368" y="499"/>
      <point x="368" y="530"/>
      <point x="369" y="631" type="curve"/>
    </contour>
    <contour>
      <point x="268" y="338" type="line"/>
      <point x="268" y="248" type="line" smooth="yes"/>
      <point x="268" y="39"/>
      <point x="260" y="12"/>
      <point x="166" y="12" type="curve"/>
      <point x="166" y="-4" type="line"/>
      <point x="219" y="0"/>
      <point x="279" y="4"/>
      <point x="318" y="4" type="curve" smooth="yes"/>
      <point x="357" y="4"/>
      <point x="419" y="0"/>
      <point x="470" y="-4" type="curve"/>
      <point x="470" y="12" type="line"/>
      <point x="376" y="12"/>
      <point x="368" y="39"/>
      <point x="368" y="248" type="curve" smooth="yes"/>
      <point x="368" y="338" type="line"/>
    </contour>
    <contour>
      <point x="264" y="614" type="curve"/>
      <point x="279" y="614"/>
      <point x="277" y="615"/>
      <point x="315" y="614" type="curve"/>
      <point x="315" y="615" type="line"/>
      <point x="339" y="614"/>
      <point x="368" y="614"/>
      <point x="402" y="614" type="curve" smooth="yes"/>
      <point x="541" y="614"/>
      <point x="574" y="593"/>
      <point x="580" y="496" type="curve"/>
      <point x="594" y="499" type="line"/>
      <point x="577" y="583"/>
      <point x="582" y="670"/>
      <point x="587" y="701" type="curve"/>
      <point x="576" y="704" type="line"/>
      <point x="573" y="693"/>
      <point x="559" y="682"/>
      <point x="532" y="676" type="curve" smooth="yes"/>
      <point x="489" y="666"/>
      <point x="416" y="666"/>
      <point x="315" y="666" type="curve" smooth="yes"/>
      <point x="219.0" y="666.0"/>
      <point x="143" y="667"/>
      <point x="97" y="682" type="curve" smooth="yes"/>
      <point x="78" y="688"/>
      <point x="69" y="695"/>
      <point x="67" y="704" type="curve"/>
      <point x="55" y="702" type="line"/>
      <point x="55" y="666"/>
      <point x="43" y="572"/>
      <point x="18" y="497" type="curve"/>
      <point x="33" y="495" type="line"/>
      <point x="55" y="602"/>
      <point x="91" y="614"/>
    </contour>
  </outline>
</glyph>
<glyph name="U" format="1">
  <advance width="732"/>
  <unicode hex="0055"/>
  <outline>
    <contour>
      <point x="621" y="266" type="curve" smooth="yes"/>
      <point x="621" y="418" type="line" smooth="yes"/>
      <point x="621" y="638"/>
      <point x="636" y="665"/>
      <point x="704" y="666" type="curve"/>
      <point x="704" y="680" type="line"/>
      <point x="678" y="676"/>
      <point x="635" y="672"/>
      <point x="593" y="672" type="curve" smooth="yes"/>
      <point x="549" y="672"/>
      <point x="498" y="676"/>
      <point x="461" y="680" type="curve"/>
      <point x="461" y="666" type="line"/>
      <point x="547" y="662"/>
      <point x="551" y="616"/>
      <point x="551" y="292" type="curve" smooth="yes"/>
      <point x="551" y="113"/>
      <point x="496" y="50"/>
      <point x="391" y="50" type="curve" smooth="yes"/>
      <point x="278" y="50"/>
      <point x="216" y="126"/>
      <point x="216" y="273" type="curve" smooth="yes"/>
      <point x="216" y="323" type="line" smooth="yes"/>
      <point x="216" y="637"/>
      <point x="228" y="665"/>
      <point x="310" y="666" type="curve"/>
      <point x="310" y="680" type="line"/>
      <point x="274" y="676"/>
      <point x="221" y="672"/>
      <point x="189" y="672" type="curve" smooth="yes"/>
      <point x="148" y="672"/>
      <point x="73" y="675"/>
      <point x="28" y="680" type="curve"/>
      <point x="28" y="666" type="line"/>
      <point x="108" y="662"/>
      <point x="116" y="645"/>
      <point x="116" y="475" type="curve" smooth="yes"/>
      <point x="116" y="232" type="line" smooth="yes"/>
      <point x="116" y="61"/>
      <point x="213" y="-14"/>
      <point x="371" y="-14" type="curve" smooth="yes"/>
      <point x="512" y="-14"/>
      <point x="621" y="45"/>
    </contour>
  </outline>
</glyph>
<glyph name="Y" format="1">
  <advance width="659"/>
  <unicode hex="0059"/>
  <outline>
    <contour>
      <point x="372" y="280" type="line"/>
      <point x="397" y="327"/>
      <point x="418" y="370"/>
      <point x="439" y="406" type="curve" smooth="yes"/>
      <point x="551" y="615"/>
      <point x="589" y="665"/>
      <point x="659" y="666" type="curve"/>
      <point x="659" y="680" type="line"/>
      <point x="636" y="676"/>
      <point x="595" y="672"/>
      <point x="537" y="672" type="curve" smooth="yes"/>
      <point x="488" y="672"/>
      <point x="428" y="676"/>
      <point x="410" y="680" type="curve"/>
      <point x="410" y="666" type="line"/>
      <point x="465" y="667"/>
      <point x="476" y="630"/>
      <point x="408" y="491" type="curve" smooth="yes"/>
      <point x="380" y="435"/>
      <point x="348" y="374"/>
      <point x="307" y="306" type="curve"/>
    </contour>
    <contour>
      <point x="286" y="272" type="curve"/>
      <point x="373" y="325" type="line"/>
      <point x="346" y="369"/>
      <point x="331" y="394"/>
      <point x="286" y="476" type="curve" smooth="yes"/>
      <point x="193" y="646"/>
      <point x="216" y="666"/>
      <point x="272" y="666" type="curve"/>
      <point x="272" y="680" type="line"/>
      <point x="254" y="677"/>
      <point x="207" y="672"/>
      <point x="168" y="672" type="curve" smooth="yes"/>
      <point x="132" y="672"/>
      <point x="43" y="675"/>
      <point x="0" y="680" type="curve"/>
      <point x="0" y="666" type="line"/>
      <point x="58" y="666"/>
      <point x="77" y="647"/>
      <point x="193" y="446" type="curve" smooth="yes"/>
      <point x="232" y="378"/>
      <point x="274" y="299"/>
    </contour>
    <contour>
      <point x="277" y="338" type="line"/>
      <point x="277" y="248" type="line" smooth="yes"/>
      <point x="277" y="39"/>
      <point x="269" y="12"/>
      <point x="175" y="12" type="curve"/>
      <point x="175" y="-4" type="line"/>
      <point x="228" y="0"/>
      <point x="288" y="4"/>
      <point x="327" y="4" type="curve" smooth="yes"/>
      <point x="366" y="4"/>
      <point x="428" y="0"/>
      <point x="479" y="-4" type="curve"/>
      <point x="479" y="12" type="line"/>
      <point x="385" y="12"/>
      <point x="377" y="39"/>
      <point x="377" y="248" type="curve" smooth="yes"/>
      <point x="377" y="338" type="line"/>
    </contour>
  </outline>
</glyph>
<glyph name="plusminus" format="1">
  <advance width="559"/>
  <unicode hex="00B1"/>
  <outline>
    <contour>
      <point x="97" y="451" type="line"/>
      <point x="99" y="403"/>
      <point x="91" y="346"/>
      <point x="59" y="281" type="curve"/>
      <point x="72" y="280" type="line"/>
      <point x="92" y="327"/>
      <point x="131" y="335"/>
      <point x="283" y="335" type="curve" smooth="yes"/>
      <point x="344" y="335" type="line" smooth="yes"/>
      <point x="481" y="335"/>
      <point x="490" y="318"/>
      <point x="490" y="277" type="curve"/>
      <point x="501" y="277" type="line"/>
      <point x="497" y="328"/>
      <point x="500" y="398"/>
      <point x="519" y="451" type="curve"/>
      <point x="509" y="451" type="line"/>
      <point x="489" y="397"/>
      <point x="454" y="394"/>
      <point x="300" y="394" type="curve" smooth="yes"/>
      <point x="247" y="394" type="line" smooth="yes"/>
      <point x="118" y="394"/>
      <point x="107" y="401"/>
      <point x="107" y="451" type="curve"/>
    </contour>
    <contour>
      <point x="400" y="113" type="curve"/>
      <point x="400" y="124" type="line"/>
      <point x="339" y="128"/>
      <point x="332" y="143"/>
      <point x="332" y="292" type="curve" smooth="yes"/>
      <point x="332" y="417" type="line" smooth="yes"/>
      <point x="332" y="568"/>
      <point x="337" y="582"/>
      <point x="393" y="589" type="curve"/>
      <point x="393" y="599" type="line"/>
      <point x="366" y="595"/>
      <point x="319" y="593"/>
      <point x="298" y="593" type="curve" smooth="yes"/>
      <point x="277" y="593"/>
      <point x="232" y="595"/>
      <point x="203" y="599" type="curve"/>
      <point x="203" y="589" type="line"/>
      <point x="260" y="582"/>
      <point x="264" y="568"/>
      <point x="264" y="417" type="curve" smooth="yes"/>
      <point x="264" y="292" type="line" smooth="yes"/>
      <point x="264" y="143"/>
      <point x="259" y="128"/>
      <point x="196" y="123" type="curve"/>
      <point x="196" y="113" type="line"/>
      <point x="233" y="116"/>
      <point x="272" y="119"/>
      <point x="298" y="119" type="curve" smooth="yes"/>
      <point x="324" y="119"/>
      <point x="366" y="116"/>
    </contour>
    <contour>
      <point x="97" y="230" type="line"/>
      <point x="99" y="182"/>
      <point x="91" y="125"/>
      <point x="59" y="60" type="curve"/>
      <point x="72" y="59" type="line"/>
      <point x="92" y="106"/>
      <point x="131" y="114"/>
      <point x="283" y="114" type="curve" smooth="yes"/>
      <point x="344" y="114" type="line" smooth="yes"/>
      <point x="481" y="114"/>
      <point x="490" y="97"/>
      <point x="490" y="56" type="curve"/>
      <point x="501" y="56" type="line"/>
      <point x="497" y="107"/>
      <point x="500" y="177"/>
      <point x="519" y="230" type="curve"/>
      <point x="509" y="230" type="line"/>
      <point x="489" y="176"/>
      <point x="454" y="173"/>
      <point x="300" y="173" type="curve" smooth="yes"/>
      <point x="247" y="173" type="line" smooth="yes"/>
      <point x="118" y="173"/>
      <point x="107" y="180"/>
      <point x="107" y="230" type="curve"/>
    </contour>
  </outline>
</glyph>
<glyph name="endash" format="1">
  <advance width="765"/>
  <unicode hex="2013"/>
  <outline>
    <contour>
      <point x="97" y="419" type="line"/>
      <point x="99.1323075578" y="367.824618612"/>
      <point x="92.7172801323" y="310.488225269"/>
      <point x="59" y="242" type="curve"/>
      <point x="72" y="241" type="line"/>
      <point x="92" y="288"/>
      <point x="131" y="296"/>
      <point x="283" y="296" type="curve" smooth="yes"/>
      <point x="550" y="296" type="line" smooth="yes"/>
      <point x="687" y="296"/>
      <point x="696" y="279"/>
      <point x="696" y="238" type="curve"/>
      <point x="707" y="238" type="line"/>
      <point x="702.742711076" y="292.280433777"/>
      <point x="704.906798057" y="362.950541949"/>
      <point x="725" y="419" type="curve"/>
      <point x="715" y="419" type="line"/>
      <point x="695" y="365"/>
      <point x="660" y="362"/>
      <point x="506" y="362" type="curve" smooth="yes"/>
      <point x="247" y="362" type="line" smooth="yes"/>
      <point x="118" y="362"/>
      <point x="107" y="369"/>
      <point x="107" y="419" type="curve"/>
    </contour>
  </outline>
</glyph>
<glyph name="emdash" format="1">
  <advance width="942"/>
  <unicode hex="2014"/>
  <outline>
    <contour>
      <point x="97" y="419" type="line"/>
      <point x="99" y="368"/>
      <point x="93" y="310"/>
      <point x="59" y="242" type="curve"/>
      <point x="72" y="241" type="line"/>
      <point x="92" y="288"/>
      <point x="131" y="296"/>
      <point x="283" y="296" type="curve" smooth="yes"/>
      <point x="727" y="296" type="line" smooth="yes"/>
      <point x="864" y="296"/>
      <point x="873" y="279"/>
      <point x="873" y="238" type="curve"/>
      <point x="884" y="238" type="line"/>
      <point x="880" y="292"/>
      <point x="882" y="363"/>
      <point x="902" y="419" type="curve"/>
      <point x="892" y="419" type="line"/>
      <point x="872" y="365"/>
      <point x="837" y="362"/>
      <point x="683" y="362" type="curve" smooth="yes"/>
      <point x="247" y="362" type="line" smooth="yes"/>
      <point x="118" y="362"/>
      <point x="107" y="369"/>
      <point x="107" y="419" type="curve"/>
    </contour>
  </outline>
</glyph>
<glyph name="quoteleft" format="1">
  <advance width="266"/>
  <unicode hex="2018"/>
  <outline>
    <contour>
      <point x="194" y="449" type="curve"/>
      <point x="201" y="439" type="line"/>
      <point x="177.282105454" y="417.344531067"/>
      <point x="123.272727273" y="398.0"/>
      <point x="87" y="398" type="curve" smooth="yes"/>
      <point x="66" y="398"/>
      <point x="55" y="408"/>
      <point x="54" y="434" type="curve" smooth="yes"/>
      <point x="52" y="493"/>
      <point x="86" y="597"/>
      <point x="227" y="699" type="curve"/>
      <point x="236" y="684" type="line"/>
      <point x="183" y="654"/>
      <point x="133" y="596"/>
      <point x="133" y="507" type="curve" smooth="yes"/>
      <point x="133" y="466"/>
      <point x="150" y="439"/>
      <point x="171" y="439" type="curve" smooth="yes"/>
      <point x="179" y="439"/>
      <point x="187" y="442"/>
    </contour>
  </outline>
</glyph>
<glyph name="quoteright" format="1">
  <advance width="266"/>
  <unicode hex="2019"/>
  <outline>
    <contour>
      <point x="68" y="636" type="curve"/>
      <point x="61" y="647" type="line"/>
      <point x="88" y="667"/>
      <point x="138" y="688"/>
      <point x="171" y="688" type="curve" smooth="yes"/>
      <point x="202" y="688"/>
      <point x="213" y="670"/>
      <point x="214" y="636" type="curve" smooth="yes"/>
      <point x="216" y="580"/>
      <point x="162" y="467"/>
      <point x="68" y="387" type="curve"/>
      <point x="59" y="402" type="line"/>
      <point x="116" y="446"/>
      <point x="141" y="516"/>
      <point x="141" y="578" type="curve" smooth="yes"/>
      <point x="141" y="646"/>
      <point x="108" y="665"/>
    </contour>
  </outline>
</glyph>
<glyph name="dagger" format="1">
  <advance width="559"/>
  <unicode hex="2020"/>
  <outline>
    <contour>
      <point x="97" y="526" type="line"/>
      <point x="99" y="478"/>
      <point x="91" y="421"/>
      <point x="59" y="356" type="curve"/>
      <point x="72" y="355" type="line"/>
      <point x="92" y="402"/>
      <point x="131" y="410"/>
      <point x="283" y="410" type="curve" smooth="yes"/>
      <point x="344" y="410" type="line" smooth="yes"/>
      <point x="481" y="410"/>
      <point x="490" y="393"/>
      <point x="490" y="352" type="curve"/>
      <point x="501" y="352" type="line"/>
      <point x="497" y="403"/>
      <point x="500" y="473"/>
      <point x="519" y="526" type="curve"/>
      <point x="509" y="526" type="line"/>
      <point x="489" y="472"/>
      <point x="454" y="469"/>
      <point x="300" y="469" type="curve" smooth="yes"/>
      <point x="247" y="469" type="line" smooth="yes"/>
      <point x="118" y="469"/>
      <point x="107" y="476"/>
      <point x="107" y="526" type="curve"/>
    </contour>
    <contour>
      <point x="400" y="-10" type="curve"/>
      <point x="400" y="1" type="line"/>
      <point x="339" y="5"/>
      <point x="332" y="20"/>
      <point x="332" y="169" type="curve" smooth="yes"/>
      <point x="332" y="492" type="line" smooth="yes"/>
      <point x="332" y="643"/>
      <point x="337" y="657"/>
      <point x="393" y="664" type="curve"/>
      <point x="393" y="674" type="line"/>
      <point x="366" y="670"/>
      <point x="319" y="668"/>
      <point x="298" y="668" type="curve" smooth="yes"/>
      <point x="277" y="668"/>
      <point x="232" y="670"/>
      <point x="203" y="674" type="curve"/>
      <point x="203" y="664" type="line"/>
      <point x="260" y="657"/>
      <point x="264" y="643"/>
      <point x="264" y="492" type="curve" smooth="yes"/>
      <point x="264" y="169" type="line" smooth="yes"/>
      <point x="264" y="20"/>
      <point x="259" y="5"/>
      <point x="196" y="0" type="curve"/>
      <point x="196" y="-10" type="line"/>
      <point x="232" y="-7"/>
      <point x="272" y="-4"/>
      <point x="298" y="-4" type="curve" smooth="yes"/>
      <point x="324" y="-4"/>
      <point x="366" y="-7"/>
    </contour>
  </outline>
</glyph>
<glyph name="daggerdbl" format="1">
  <advance width="559"/>
  <unicode hex="2021"/>
  <outline>
    <contour>
      <point x="97" y="566" type="line"/>
      <point x="99" y="518"/>
      <point x="91" y="461"/>
      <point x="59" y="396" type="curve"/>
      <point x="72" y="395" type="line"/>
      <point x="92" y="442"/>
      <point x="131" y="450"/>
      <point x="283" y="450" type="curve" smooth="yes"/>
      <point x="344" y="450" type="line" smooth="yes"/>
      <point x="481" y="450"/>
      <point x="490" y="433"/>
      <point x="490" y="392" type="curve"/>
      <point x="501" y="392" type="line"/>
      <point x="497" y="443"/>
      <point x="500" y="513"/>
      <point x="519" y="566" type="curve"/>
      <point x="509" y="566" type="line"/>
      <point x="489" y="512"/>
      <point x="454" y="509"/>
      <point x="300" y="509" type="curve" smooth="yes"/>
      <point x="247" y="509" type="line" smooth="yes"/>
      <point x="118" y="509"/>
      <point x="107" y="516"/>
      <point x="107" y="566" type="curve"/>
    </contour>
    <contour>
      <point x="400" y="-10" type="curve"/>
      <point x="400" y="1" type="line"/>
      <point x="339" y="5"/>
      <point x="332" y="20"/>
      <point x="332" y="169" type="curve" smooth="yes"/>
      <point x="332" y="492" type="line" smooth="yes"/>
      <point x="332" y="643"/>
      <point x="337" y="657"/>
      <point x="393" y="664" type="curve"/>
      <point x="393" y="674" type="line"/>
      <point x="366" y="670"/>
      <point x="319" y="668"/>
      <point x="298" y="668" type="curve" smooth="yes"/>
      <point x="277" y="668"/>
      <point x="232" y="670"/>
      <point x="203" y="674" type="curve"/>
      <point x="203" y="664" type="line"/>
      <point x="260" y="657"/>
      <point x="264" y="643"/>
      <point x="264" y="492" type="curve" smooth="yes"/>
      <point x="264" y="169" type="line" smooth="yes"/>
      <point x="264" y="20"/>
      <point x="259" y="5"/>
      <point x="196" y="0" type="curve"/>
      <point x="196" y="-10" type="line"/>
      <point x="232" y="-7"/>
      <point x="272" y="-4"/>
      <point x="298" y="-4" type="curve" smooth="yes"/>
      <point x="324" y="-4"/>
      <point x="366" y="-7"/>
    </contour>
    <contour>
      <point x="97" y="363" type="line"/>
      <point x="99" y="315"/>
      <point x="91" y="258"/>
      <point x="59" y="193" type="curve"/>
      <point x="72" y="192" type="line"/>
      <point x="92" y="239"/>
      <point x="131" y="247"/>
      <point x="283" y="247" type="curve" smooth="yes"/>
      <point x="344" y="247" type="line" smooth="yes"/>
      <point x="481" y="247"/>
      <point x="490" y="230"/>
      <point x="490" y="189" type="curve"/>
      <point x="501" y="189" type="line"/>
      <point x="497" y="240"/>
      <point x="500" y="310"/>
      <point x="519" y="363" type="curve"/>
      <point x="509" y="363" type="line"/>
      <point x="489" y="309"/>
      <point x="454" y="306"/>
      <point x="300" y="306" type="curve" smooth="yes"/>
      <point x="247" y="306" type="line" smooth="yes"/>
      <point x="118" y="306"/>
      <point x="107" y="313"/>
      <point x="107" y="363" type="curve"/>
    </contour>
  </outline>
</glyph>
<glyph name="lozenge" format="1">
  <advance width="500"/>
  <unicode hex="25CA"/>
  <outline>
    <contour>
      <point x="25" y="374" type="curve"/>
      <point x="25" y="365" type="line"/>
      <point x="111" y="223"/>
      <point x="182" y="94"/>
      <point x="238" y="-29" type="curve"/>
      <point x="244" y="-28" type="line"/>
      <point x="273" y="36" type="line"/>
      <point x="215" y="128"/>
      <point x="144" y="255"/>
      <point x="96" y="358" type="curve" smooth="yes"/>
      <point x="75" y="407"/>
      <point x="76" y="419"/>
      <point x="87" y="431" type="curve"/>
      <point x="78" y="440" type="line"/>
      <point x="67" y="418"/>
      <point x="43" y="385"/>
    </contour>
    <contour>
      <point x="475" y="366" type="curve"/>
      <point x="476" y="374" type="line"/>
      <point x="394.073374516" y="511.829499343"/>
      <point x="316.699005986" y="641.965302872"/>
      <point x="262" y="760" type="curve"/>
      <point x="256" y="758" type="line"/>
      <point x="228" y="695" type="line"/>
      <point x="283.536822794" y="606.907108672"/>
      <point x="358.356401508" y="479.894463399"/>
      <point x="404" y="381" type="curve" smooth="yes"/>
      <point x="426" y="334"/>
      <point x="424" y="321"/>
      <point x="414" y="308" type="curve"/>
      <point x="422" y="299" type="line"/>
      <point x="433" y="320"/>
      <point x="456" y="355"/>
    </contour>
    <contour>
      <point x="39" y="379" type="curve"/>
      <point x="78" y="345" type="line"/>
      <point x="100" y="404"/>
      <point x="128" y="474"/>
      <point x="174" y="559" type="curve" smooth="yes"/>
      <point x="202" y="615"/>
      <point x="240" y="667"/>
      <point x="272" y="713" type="curve"/>
      <point x="260" y="759" type="line"/>
      <point x="253" y="759" type="line"/>
      <point x="225" y="711" type="line" smooth="yes"/>
      <point x="159" y="590"/>
      <point x="111" y="493"/>
    </contour>
    <contour>
      <point x="462" y="360" type="curve"/>
      <point x="461" y="371"/>
      <point x="460" y="381"/>
      <point x="460" y="391" type="curve"/>
      <point x="427" y="409" type="line"/>
      <point x="403.186858857" y="339.725407584"/>
      <point x="379.551337779" y="270.740294151"/>
      <point x="327.0" y="171.0" type="curve" smooth="yes"/>
      <point x="298.0" y="116.0"/>
      <point x="260.0" y="62.0"/>
      <point x="228.0" y="18.0" type="curve"/>
      <point x="240.0" y="-28.0" type="line"/>
      <point x="247.0" y="-28.0" type="line"/>
      <point x="276.0" y="19.0" type="line" smooth="yes"/>
      <point x="352.134193857" y="142.389900389"/>
      <point x="386.765922687" y="240.879377587"/>
    </contour>
  </outline>
</glyph>
<glyph name="F.001" format="1">
  <advance width="586"/>
  <outline>
    <contour>
      <point x="352" y="-4" type="curve"/>
      <point x="352" y="12" type="line"/>
      <point x="260" y="13"/>
      <point x="250" y="38"/>
      <point x="250" y="247" type="curve" smooth="yes"/>
      <point x="250" y="354" type="line"/>
      <point x="150" y="360" type="line"/>
      <point x="150" y="249" type="line" smooth="yes"/>
      <point x="150" y="40"/>
      <point x="143" y="14"/>
      <point x="48" y="12" type="curve"/>
      <point x="48" y="-4" type="line"/>
      <point x="101" y="0"/>
      <point x="161" y="4"/>
      <point x="200" y="4" type="curve" smooth="yes"/>
      <point x="239" y="4"/>
      <point x="301" y="0"/>
    </contour>
    <contour>
      <point x="250" y="354" type="line"/>
      <point x="248" y="418"/>
      <point x="250" y="557"/>
      <point x="251" y="628" type="curve"/>
      <point x="385" y="641" type="line"/>
      <point x="385" y="672" type="line"/>
      <point x="296" y="672"/>
      <point x="163" y="670"/>
      <point x="52" y="680" type="curve"/>
      <point x="52" y="666" type="line"/>
      <point x="141" y="662"/>
      <point x="150" y="634"/>
      <point x="150" y="423" type="curve" smooth="yes"/>
      <point x="150" y="360" type="line"/>
    </contour>
    <contour>
      <point x="200" y="607" type="line" name=""/>
      <point x="223" y="610"/>
      <point x="288" y="618"/>
      <point x="323" y="618" type="curve" smooth="yes" name=""/>
      <point x="459" y="618"/>
      <point x="497" y="600"/>
      <point x="504" y="496" type="curve" name=""/>
      <point x="520" y="499" type="line" name=""/>
      <point x="501" y="583"/>
      <point x="510" y="663"/>
      <point x="519" y="698" type="curve" name=""/>
      <point x="509" y="701" type="line" name=""/>
      <point x="503" y="685"/>
      <point x="488" y="672"/>
      <point x="379" y="672" type="curve" name=""/>
      <point x="224" y="669" type="line" name=""/>
    </contour>
    <contour>
      <point x="234" y="309" type="line"/>
      <point x="245" y="310"/>
      <point x="276" y="312"/>
      <point x="286" y="312" type="curve" smooth="yes"/>
      <point x="329" y="312"/>
      <point x="388" y="312"/>
      <point x="417" y="296" type="curve" smooth="yes"/>
      <point x="448" y="278"/>
      <point x="459" y="254"/>
      <point x="462" y="209" type="curve"/>
      <point x="476" y="213" type="line"/>
      <point x="467" y="278"/>
      <point x="466" y="313"/>
      <point x="466" y="340" type="curve" smooth="yes"/>
      <point x="466" y="371"/>
      <point x="472" y="408"/>
      <point x="482" y="434" type="curve"/>
      <point x="467" y="437" type="line"/>
      <point x="456" y="379"/>
      <point x="420" y="369"/>
      <point x="335" y="369" type="curve" smooth="yes"/>
      <point x="314" y="369"/>
      <point x="262" y="372"/>
      <point x="234" y="373" type="curve"/>
    </contour>
  </outline>
</glyph>
<glyph name="G.001" format="1">
  <advance width="705"/>
  <outline>
    <contour>
      <point x="585" y="154" type="curve" smooth="yes"/>
      <point x="585" y="284"/>
      <point x="595" y="299"/>
      <point x="657" y="302" type="curve"/>
      <point x="657" y="317" type="line"/>
      <point x="623" y="312"/>
      <point x="590" y="308"/>
      <point x="550" y="308" type="curve" smooth="yes"/>
      <point x="497" y="308"/>
      <point x="437" y="311"/>
      <point x="396" y="317" type="curve"/>
      <point x="396" y="302" type="line"/>
      <point x="481" y="297"/>
      <point x="494" y="271"/>
      <point x="494" y="128" type="curve" smooth="yes"/>
      <point x="494" y="95"/>
      <point x="493" y="68"/>
      <point x="492" y="40" type="curve" smooth="yes"/>
      <point x="491" y="24"/>
      <point x="460" y="16"/>
      <point x="410" y="23" type="curve"/>
      <point x="410" y="8" type="line"/>
      <point x="447" y="4"/>
      <point x="469" y="12"/>
      <point x="517" y="12" type="curve" smooth="yes"/>
      <point x="543" y="12"/>
      <point x="572" y="8"/>
      <point x="589" y="11" type="curve"/>
      <point x="589" y="29" type="line"/>
      <point x="585" y="52"/>
      <point x="585" y="107"/>
    </contour>
    <contour>
      <point x="589" y="11" type="curve"/>
      <point x="575" y="13"/>
      <point x="565" y="43"/>
      <point x="565" y="51" type="curve" smooth="yes"/>
      <point x="565" y="92"/>
      <point x="571" y="108"/>
      <point x="580" y="126" type="curve"/>
      <point x="564" y="126" type="line"/>
      <point x="537" y="69"/>
      <point x="497" y="44"/>
      <point x="430" y="44" type="curve" smooth="yes"/>
      <point x="259" y="44"/>
      <point x="176" y="202"/>
      <point x="176" y="355" type="curve" smooth="yes"/>
      <point x="176" y="548"/>
      <point x="278" y="629"/>
      <point x="409" y="629" type="curve" smooth="yes"/>
      <point x="466" y="629"/>
      <point x="517" y="610"/>
      <point x="550" y="586" type="curve" smooth="yes"/>
      <point x="581" y="562"/>
      <point x="590" y="528"/>
      <point x="588" y="475" type="curve"/>
      <point x="603" y="478" type="line"/>
      <point x="599" y="517"/>
      <point x="598" y="548"/>
      <point x="598" y="574" type="curve" smooth="yes"/>
      <point x="598" y="627"/>
      <point x="606" y="664"/>
      <point x="616" y="686" type="curve"/>
      <point x="606" y="691" type="line"/>
      <point x="602" y="680"/>
      <point x="586" y="676"/>
      <point x="569" y="676" type="curve" smooth="yes"/>
      <point x="539" y="676"/>
      <point x="478" y="684"/>
      <point x="409" y="684" type="curve" smooth="yes"/>
      <point x="172" y="684"/>
      <point x="54" y="523"/>
      <point x="54" y="346" type="curve" smooth="yes"/>
      <point x="54" y="156"/>
      <point x="190" y="-11"/>
      <point x="411" y="-11" type="curve" smooth="yes"/>
      <point x="464" y="-11"/>
      <point x="546" y="-2"/>
    </contour>
  </outline>
</glyph>
<glyph name="G.003" format="1">
  <advance width="720"/>
  <outline>
    <contour>
      <point x="594" y="135" type="curve" smooth="yes"/>
      <point x="594" y="275"/>
      <point x="603" y="302"/>
      <point x="675" y="302" type="curve"/>
      <point x="675" y="317" type="line"/>
      <point x="620" y="309"/>
      <point x="585" y="309"/>
      <point x="546" y="309" type="curve" smooth="yes"/>
      <point x="495" y="309"/>
      <point x="440" y="313"/>
      <point x="404" y="317" type="curve"/>
      <point x="404" y="302" type="line"/>
      <point x="485" y="297"/>
      <point x="498" y="283"/>
      <point x="498" y="196" type="curve" smooth="yes"/>
      <point x="498" y="151" type="line"/>
      <point x="515" y="151" type="line"/>
      <point x="525" y="17"/>
      <point x="615" y="-4"/>
      <point x="666" y="-4" type="curve"/>
      <point x="666" y="12" type="line"/>
      <point x="627" y="6"/>
      <point x="594" y="44"/>
    </contour>
    <contour>
      <point x="567" y="121" type="curve"/>
      <point x="566" y="196" type="line"/>
      <point x="498" y="196" type="line"/>
      <point x="498" y="97"/>
      <point x="456" y="50"/>
      <point x="381" y="50" type="curve" smooth="yes"/>
      <point x="265" y="50"/>
      <point x="171" y="186"/>
      <point x="171" y="353" type="curve" smooth="yes"/>
      <point x="171" y="547"/>
      <point x="268" y="629"/>
      <point x="400" y="629" type="curve" smooth="yes"/>
      <point x="456" y="629"/>
      <point x="517" y="612"/>
      <point x="554" y="586" type="curve" smooth="yes"/>
      <point x="585" y="562"/>
      <point x="594" y="528"/>
      <point x="592" y="475" type="curve"/>
      <point x="607" y="478" type="line"/>
      <point x="603" y="517"/>
      <point x="602" y="548"/>
      <point x="602" y="574" type="curve" smooth="yes"/>
      <point x="602" y="627"/>
      <point x="610" y="664"/>
      <point x="620" y="686" type="curve"/>
      <point x="610" y="691" type="line"/>
      <point x="606" y="680"/>
      <point x="590" y="676"/>
      <point x="573" y="676" type="curve" smooth="yes"/>
      <point x="543" y="676"/>
      <point x="480" y="684"/>
      <point x="410" y="684" type="curve" smooth="yes"/>
      <point x="173" y="684"/>
      <point x="54" y="522"/>
      <point x="54" y="344" type="curve" smooth="yes"/>
      <point x="54" y="138"/>
      <point x="177" y="-10"/>
      <point x="366" y="-10" type="curve" smooth="yes"/>
      <point x="472" y="-10"/>
      <point x="543" y="42"/>
    </contour>
  </outline>
</glyph>
<glyph name="G.005" format="1">
  <advance width="766"/>
  <outline>
    <contour>
      <point x="640" y="135" type="curve" smooth="yes"/>
      <point x="640" y="275"/>
      <point x="649" y="302"/>
      <point x="721" y="302" type="curve"/>
      <point x="721" y="317" type="line"/>
      <point x="666" y="309"/>
      <point x="631" y="309"/>
      <point x="592" y="309" type="curve" smooth="yes"/>
      <point x="541" y="309"/>
      <point x="486" y="313"/>
      <point x="450" y="317" type="curve"/>
      <point x="450" y="302" type="line"/>
      <point x="531" y="297"/>
      <point x="544" y="283"/>
      <point x="544" y="196" type="curve" smooth="yes"/>
      <point x="544" y="151" type="line"/>
      <point x="561" y="151" type="line"/>
      <point x="571" y="17"/>
      <point x="661" y="-4"/>
      <point x="712" y="-4" type="curve"/>
      <point x="712" y="12" type="line"/>
      <point x="673" y="6"/>
      <point x="640" y="44"/>
    </contour>
    <contour>
      <point x="612" y="121" type="curve"/>
      <point x="612" y="196" type="line"/>
      <point x="544" y="196" type="line"/>
      <point x="544" y="97"/>
      <point x="496" y="50"/>
      <point x="410" y="50" type="curve" smooth="yes"/>
      <point x="280" y="50"/>
      <point x="174" y="189"/>
      <point x="174" y="355" type="curve" smooth="yes"/>
      <point x="174" y="548"/>
      <point x="289" y="629"/>
      <point x="432" y="629" type="curve" smooth="yes"/>
      <point x="500" y="629"/>
      <point x="563" y="612"/>
      <point x="600" y="586" type="curve" smooth="yes"/>
      <point x="631" y="562"/>
      <point x="640" y="528"/>
      <point x="638" y="475" type="curve"/>
      <point x="653" y="478" type="line"/>
      <point x="649" y="517"/>
      <point x="648" y="548"/>
      <point x="648" y="574" type="curve" smooth="yes"/>
      <point x="648" y="627"/>
      <point x="656" y="664"/>
      <point x="666" y="686" type="curve"/>
      <point x="656" y="691" type="line"/>
      <point x="652" y="680"/>
      <point x="636" y="676"/>
      <point x="619" y="676" type="curve" smooth="yes"/>
      <point x="588" y="676"/>
      <point x="524" y="684"/>
      <point x="452" y="684" type="curve" smooth="yes"/>
      <point x="187" y="684"/>
      <point x="54" y="522"/>
      <point x="54" y="344" type="curve" smooth="yes"/>
      <point x="54" y="138"/>
      <point x="188" y="-10"/>
      <point x="395" y="-10" type="curve" smooth="yes"/>
      <point x="509" y="-10"/>
      <point x="588" y="42"/>
    </contour>
  </outline>
</glyph>
<glyph name="N.002" format="1">
  <advance width="829"/>
  <outline>
    <contour>
      <point x="682" y="71" type="line"/>
      <point x="684" y="308" type="line" smooth="yes"/>
      <point x="687" y="639"/>
      <point x="697" y="663"/>
      <point x="775" y="666" type="curve"/>
      <point x="775" y="680" type="line"/>
      <point x="748" y="676"/>
      <point x="698" y="672"/>
      <point x="649" y="672" type="curve" smooth="yes"/>
      <point x="618" y="672"/>
      <point x="548" y="676"/>
      <point x="518" y="680" type="curve"/>
      <point x="518" y="666" type="line"/>
      <point x="607" y="658"/>
      <point x="623" y="631"/>
      <point x="623" y="403" type="curve" smooth="yes"/>
      <point x="623" y="308"/>
      <point x="618" y="173"/>
      <point x="611" y="91" type="curve"/>
    </contour>
    <contour>
      <point x="670" y="-24" type="curve"/>
      <point x="684" y="-24" type="line"/>
      <point x="683" y="15"/>
      <point x="683" y="99"/>
      <point x="683" y="248" type="curve"/>
      <point x="677" y="254"/>
      <point x="651" y="253"/>
      <point x="646" y="247" type="curve"/>
      <point x="646" y="189"/>
      <point x="650" y="169"/>
      <point x="643" y="177" type="curve" smooth="yes"/>
      <point x="559" y="274"/>
      <point x="509" y="326"/>
      <point x="457" y="387" type="curve" smooth="yes"/>
      <point x="315" y="555"/>
      <point x="260" y="637"/>
      <point x="247" y="672" type="curve"/>
      <point x="232" y="667"/>
      <point x="210" y="666"/>
      <point x="187" y="666" type="curve"/>
      <point x="169" y="606" type="line"/>
      <point x="194" y="545" type="line"/>
      <point x="298" y="423"/>
      <point x="453" y="247"/>
      <point x="548" y="133" type="curve" smooth="yes"/>
      <point x="609" y="58"/>
      <point x="654" y="4"/>
    </contour>
    <contour>
      <point x="313" y="-4" type="curve"/>
      <point x="313" y="12" type="line"/>
      <point x="219" y="16"/>
      <point x="214" y="56"/>
      <point x="214" y="265" type="curve" smooth="yes"/>
      <point x="214" y="313"/>
      <point x="217" y="486"/>
      <point x="221" y="588" type="curve"/>
      <point x="206" y="666" type="line"/>
      <point x="187" y="666" type="line" smooth="yes"/>
      <point x="137" y="666"/>
      <point x="71" y="675"/>
      <point x="32" y="680" type="curve"/>
      <point x="32" y="666" type="line"/>
      <point x="134" y="658"/>
      <point x="151" y="622"/>
      <point x="151" y="400" type="curve" smooth="yes"/>
      <point x="151" y="287" type="line" smooth="yes"/>
      <point x="151" y="56"/>
      <point x="143" y="17"/>
      <point x="47" y="12" type="curve"/>
      <point x="47" y="-4" type="line"/>
      <point x="83" y="0"/>
      <point x="143" y="4"/>
      <point x="184" y="4" type="curve" smooth="yes"/>
      <point x="225" y="4"/>
      <point x="277" y="0"/>
    </contour>
  </outline>
</glyph>
<glyph name="O.001" format="1">
  <advance width="737"/>
  <outline>
    <contour>
      <point x="172" y="357" type="curve" smooth="yes"/>
      <point x="172" y="553"/>
      <point x="247" y="644"/>
      <point x="361" y="644" type="curve" smooth="yes"/>
      <point x="480" y="644"/>
      <point x="565" y="515"/>
      <point x="565" y="325" type="curve" smooth="yes"/>
      <point x="565" y="120"/>
      <point x="495" y="32"/>
      <point x="379" y="32" type="curve" smooth="yes"/>
      <point x="248" y="32"/>
      <point x="172" y="191"/>
    </contour>
    <contour>
      <point x="54" y="345" type="curve" smooth="yes"/>
      <point x="54" y="123"/>
      <point x="189" y="-24"/>
      <point x="373" y="-24" type="curve" smooth="yes"/>
      <point x="532" y="-24"/>
      <point x="683" y="99"/>
      <point x="683" y="347" type="curve" smooth="yes"/>
      <point x="683" y="550"/>
      <point x="556" y="700"/>
      <point x="370" y="700" type="curve" smooth="yes"/>
      <point x="189" y="700"/>
      <point x="54" y="551"/>
    </contour>
  </outline>
</glyph>
<glyph name="O.002" format="1">
  <advance width="805"/>
  <outline>
    <contour>
      <point x="54" y="130"/>
      <point x="195" y="-24"/>
      <point x="398" y="-24" type="curve" smooth="yes"/>
      <point x="606" y="-24"/>
      <point x="751" y="122"/>
      <point x="751" y="359" type="curve" smooth="yes"/>
      <point x="751" y="530"/>
      <point x="627" y="700"/>
      <point x="416" y="700" type="curve" smooth="yes"/>
      <point x="213" y="700"/>
      <point x="54" y="560"/>
      <point x="54" y="330" type="curve" smooth="yes"/>
    </contour>
    <contour>
      <point x="262" y="32"/>
      <point x="165" y="177"/>
      <point x="165" y="358" type="curve" smooth="yes"/>
      <point x="165" y="524"/>
      <point x="252" y="639"/>
      <point x="394" y="639" type="curve" smooth="yes"/>
      <point x="537" y="639"/>
      <point x="640" y="498"/>
      <point x="640" y="311" type="curve" smooth="yes"/>
      <point x="640" y="116"/>
      <point x="535" y="32"/>
      <point x="415" y="32" type="curve" smooth="yes"/>
    </contour>
  </outline>
</glyph>
<glyph name="S.001" format="1">
  <advance width="500"/>
  <outline>
    <contour>
      <point x="73" y="299" type="move"/>
      <point x="144" y="299"/>
      <point x="186" y="310"/>
      <point x="211" y="323" type="curve" smooth="yes"/>
      <point x="258" y="348"/>
      <point x="272" y="377"/>
      <point x="295" y="377" type="curve" smooth="yes"/>
      <point x="309" y="377"/>
      <point x="323" y="369"/>
      <point x="323" y="349" type="curve" smooth="yes"/>
      <point x="323" y="338" type="line"/>
      <point x="346" y="338" type="line"/>
      <point x="346" y="379" type="line"/>
      <point x="448" y="379" type="line"/>
      <point x="448" y="248" type="line"/>
      <point x="73" y="248" type="line"/>
    </contour>
  </outline>
</glyph>
<glyph name="T.copy_1" format="1">
  <advance width="645"/>
  <outline>
    <contour>
      <point x="334" y="611" type="curve"/>
      <point x="334" y="624"/>
      <point x="348" y="651"/>
      <point x="348" y="663" type="curve"/>
      <point x="320" y="663" type="line" smooth="yes"/>
      <point x="238" y="663"/>
      <point x="162" y="664"/>
      <point x="116" y="679" type="curve" smooth="yes"/>
      <point x="97" y="685"/>
      <point x="88" y="692"/>
      <point x="86" y="701" type="curve"/>
      <point x="74" y="698" type="line"/>
      <point x="74.0" y="663.173267327"/>
      <point x="61.56108299" y="570.68324897"/>
      <point x="37" y="497" type="curve"/>
      <point x="52" y="495" type="line"/>
      <point x="73.4681522937" y="599.413286156"/>
      <point x="110.0" y="611.0"/>
      <point x="283" y="611" type="curve"/>
      <point x="298" y="611"/>
      <point x="296" y="612"/>
    </contour>
    <contour>
      <point x="264" y="612" type="curve"/>
      <point x="301" y="613"/>
      <point x="347" y="611"/>
      <point x="421" y="611" type="curve" smooth="yes"/>
      <point x="560.0" y="611.0"/>
      <point x="593.151953397" y="590.543420076"/>
      <point x="599" y="496" type="curve"/>
      <point x="613" y="499" type="line"/>
      <point x="596.242469341" y="581.801916196"/>
      <point x="601.072360804" y="667.448636986"/>
      <point x="606" y="698" type="curve"/>
      <point x="595" y="701" type="line"/>
      <point x="592" y="690"/>
      <point x="578" y="679"/>
      <point x="551" y="673" type="curve" smooth="yes"/>
      <point x="508" y="663"/>
      <point x="435" y="663"/>
      <point x="334" y="663" type="curve" smooth="yes"/>
      <point x="278" y="663" type="line"/>
      <point x="278" y="651"/>
      <point x="264" y="625"/>
    </contour>
    <contour>
      <point x="286" y="628" type="line"/>
      <point x="286.984376544" y="528.577969085"/>
      <point x="287" y="497.689473685"/>
      <point x="287" y="439" type="curve" smooth="yes"/>
      <point x="287" y="324" type="line"/>
      <point x="387" y="324" type="line"/>
      <point x="387" y="439" type="line" smooth="yes"/>
      <point x="387" y="497.689473685"/>
      <point x="387.015623456" y="528.577969085"/>
      <point x="388" y="628" type="curve"/>
    </contour>
    <contour>
      <point x="287" y="338" type="line"/>
      <point x="287" y="248" type="line" smooth="yes"/>
      <point x="287" y="39"/>
      <point x="279" y="12"/>
      <point x="185" y="12" type="curve"/>
      <point x="185" y="-4" type="line"/>
      <point x="238" y="0"/>
      <point x="298" y="4"/>
      <point x="337" y="4" type="curve" smooth="yes"/>
      <point x="376" y="4"/>
      <point x="438" y="0"/>
      <point x="489" y="-4" type="curve"/>
      <point x="489" y="12" type="line"/>
      <point x="395" y="12"/>
      <point x="387" y="39"/>
      <point x="387" y="248" type="curve" smooth="yes"/>
      <point x="387" y="338" type="line"/>
    </contour>
  </outline>
</glyph>
<glyph name="Z.001" format="1">
  <advance width="617"/>
  <outline>
    <contour>
      <point x="54" y="-4" type="line"/>
      <point x="74" y="0"/>
      <point x="151" y="0"/>
      <point x="185" y="0" type="curve"/>
      <point x="185" y="0"/>
      <point x="206" y="47"/>
      <point x="206" y="47" type="curve"/>
      <point x="291" y="208"/>
      <point x="421" y="421"/>
      <point x="521" y="589" type="curve" smooth="yes"/>
      <point x="568" y="668" type="line"/>
      <point x="566" y="680" type="line"/>
      <point x="531" y="674"/>
      <point x="413" y="672"/>
      <point x="320" y="672" type="curve"/>
      <point x="320" y="645" type="line"/>
      <point x="416" y="626" type="line"/>
      <point x="391" y="568"/>
      <point x="326" y="447"/>
      <point x="246" y="314" type="curve" smooth="yes"/>
      <point x="185" y="213"/>
      <point x="114" y="97"/>
      <point x="50" y="10" type="curve"/>
    </contour>
    <contour>
      <point x="436" y="605" type="curve"/>
      <point x="436" y="622"/>
      <point x="450" y="658"/>
      <point x="450" y="672" type="curve"/>
      <point x="320" y="672" type="line" smooth="yes"/>
      <point x="213" y="672"/>
      <point x="122" y="678"/>
      <point x="111" y="704" type="curve"/>
      <point x="99" y="702" type="line"/>
      <point x="99" y="666"/>
      <point x="91" y="571"/>
      <point x="66" y="497" type="curve"/>
      <point x="82" y="494" type="line"/>
      <point x="99" y="605"/>
      <point x="147" y="618"/>
      <point x="293" y="618" type="curve" smooth="yes"/>
      <point x="335" y="618"/>
      <point x="384" y="612"/>
    </contour>
    <contour>
      <point x="96" y="0" type="line"/>
      <point x="302" y="0"/>
      <point x="459" y="0"/>
      <point x="545" y="-4" type="curve"/>
      <point x="547" y="12" type="line"/>
      <point x="551" y="71"/>
      <point x="573" y="139"/>
      <point x="584" y="172" type="curve"/>
      <point x="569" y="178" type="line"/>
      <point x="551" y="79"/>
      <point x="483" y="55"/>
      <point x="347" y="55" type="curve" smooth="yes"/>
      <point x="286" y="55"/>
      <point x="213" y="62"/>
      <point x="138" y="88" type="curve"/>
    </contour>
  </outline>
</glyph>
